<?xml version="1.0" encoding="utf-8" standalone="no"?>
<!DOCTYPE svg PUBLIC "-//W3C//DTD SVG 1.1//EN"
  "http://www.w3.org/Graphics/SVG/1.1/DTD/svg11.dtd">
<svg height="280.70714pt" version="1.1" viewBox="0 0 849.055909 280.70714" width="849.055909pt" xmlns="http://www.w3.org/2000/svg" xmlns:xlink="http://www.w3.org/1999/xlink">
 <metadata>
  <rdf:RDF xmlns:cc="http://creativecommons.org/ns#" xmlns:dc="http://purl.org/dc/elements/1.1/" xmlns:rdf="http://www.w3.org/1999/02/22-rdf-syntax-ns#">
   <cc:Work>
    <dc:type rdf:resource="http://purl.org/dc/dcmitype/StillImage"/>
    <dc:date>2024-01-26T02:20:14.382315</dc:date>
    <dc:format>image/svg+xml</dc:format>
    <dc:creator>
     <cc:Agent>
      <dc:title>Matplotlib v3.4.3, https://matplotlib.org/</dc:title>
     </cc:Agent>
    </dc:creator>
   </cc:Work>
  </rdf:RDF>
 </metadata>
 <defs>
  <style type="text/css">*{stroke-linecap:butt;stroke-linejoin:round;}</style>
 </defs>
 <g id="figure_1">
  <g id="patch_1">
   <path d="M 0 280.70714 
L 849.055909 280.70714 
L 849.055909 0 
L 0 0 
z
" style="fill:#ffffff;"/>
  </g>
  <g id="axes_1">
   <g id="line2d_1">
    <path clip-path="url(#p2d29daac1a)" d="M 45.138905 71.510922 
L 66.405959 67.808696 
L 78.052203 66.016654 
L 87.673013 64.751268 
L 96.787464 63.776712 
L 105.395557 63.085792 
L 113.497292 62.65758 
L 121.599027 62.455982 
L 129.700762 62.486158 
L 137.802497 62.747337 
L 145.904231 63.232834 
L 154.512325 63.980462 
L 163.626776 65.008613 
L 173.247586 66.321503 
L 184.387472 68.072015 
L 199.578224 70.70884 
L 225.908863 75.308632 
L 237.555106 77.088261 
L 247.175916 78.340051 
L 256.290368 79.299405 
L 264.898461 79.974347 
L 273.000196 80.386501 
L 281.101931 80.571471 
L 289.203666 80.524523 
L 297.3054 80.246859 
L 305.407135 79.745585 
L 314.015228 78.98242 
L 323.12968 77.939683 
L 332.75049 76.61399 
L 343.890375 74.852566 
L 359.081128 72.208501 
L 384.905408 67.700445 
L 396.045293 65.994299 
L 405.666103 64.732543 
L 414.780555 63.762053 
L 423.388648 63.075409 
L 431.490383 62.651499 
L 439.592118 62.454359 
L 447.693852 62.489034 
L 455.795587 62.754639 
L 463.897322 63.244374 
L 472.505415 63.99618 
L 481.619867 65.028257 
L 491.240677 66.344598 
L 502.380562 68.098061 
L 517.571315 70.736862 
L 543.901953 75.334158 
L 550.990971 76.445671 
L 550.990971 76.445671 
" style="fill:none;stroke:#0000ff;stroke-linecap:square;stroke-width:1.5;"/>
   </g>
   <g id="line2d_2">
    <path clip-path="url(#p2d29daac1a)" d="M 45.138905 91.508884 
L 60.836016 86.774428 
L 69.444109 84.414776 
L 76.533127 82.688907 
L 83.115787 81.3082 
L 89.192088 80.253362 
L 95.268389 79.431982 
L 100.838332 78.898778 
L 106.408274 78.585412 
L 111.978217 78.497348 
L 117.54816 78.636121 
L 123.118102 78.999311 
L 128.688045 79.580587 
L 134.764346 80.451427 
L 140.840647 81.551615 
L 147.423307 82.975728 
L 154.512325 84.74051 
L 162.614059 86.988073 
L 173.753945 90.332279 
L 194.008282 96.455524 
L 202.616375 98.793523 
L 209.705393 100.495566 
L 216.288052 101.84992 
L 222.364354 102.877384 
L 228.440655 103.669048 
L 234.010597 104.173479 
L 239.58054 104.457122 
L 245.150483 104.515031 
L 250.720425 104.346197 
L 256.290368 103.953565 
L 261.860311 103.343977 
L 267.936612 102.444122 
L 274.012913 101.317452 
L 280.595572 99.868148 
L 287.68459 98.080985 
L 296.292684 95.666839 
L 308.445286 91.989461 
L 325.661472 86.785375 
L 334.269565 84.42463 
L 341.358583 82.69755 
L 347.941243 81.3155 
L 354.017544 80.259264 
L 360.093845 79.436363 
L 365.663788 78.901685 
L 371.23373 78.586793 
L 376.803673 78.49718 
L 382.373616 78.634406 
L 387.943558 78.996079 
L 393.513501 79.575895 
L 399.589802 80.445236 
L 405.666103 81.544054 
L 412.248763 82.96686 
L 419.337781 84.730477 
L 427.439515 86.977056 
L 438.579401 90.320576 
L 458.833738 96.444653 
L 467.441831 98.783783 
L 474.530849 100.487064 
L 481.113508 101.842782 
L 487.18981 102.871662 
L 493.266111 103.664859 
L 498.836053 104.170773 
L 504.405996 104.455946 
L 509.975939 104.515406 
L 515.545881 104.348116 
L 521.115824 103.956994 
L 526.685767 103.348858 
L 532.762068 102.450487 
L 538.838369 101.32517 
L 545.421028 99.87715 
L 550.990971 98.491285 
L 550.990971 98.491285 
" style="fill:none;stroke:#0000ff;stroke-linecap:square;stroke-width:1.5;"/>
   </g>
   <g id="line2d_3">
    <path clip-path="url(#p2d29daac1a)" d="M 45.138905 111.506845 
L 59.316941 107.229014 
L 66.912317 105.166298 
L 73.494977 103.601441 
L 79.571278 102.388158 
L 85.14122 101.50128 
L 90.711163 100.8517 
L 95.774747 100.480168 
L 100.838332 100.324838 
L 105.901916 100.388755 
L 110.9655 100.670665 
L 116.029084 101.165042 
L 121.599027 101.942567 
L 127.16897 102.946923 
L 133.245271 104.273162 
L 139.82793 105.938915 
L 147.929665 108.235695 
L 160.588626 112.106198 
L 173.247586 115.903883 
L 180.842963 117.953512 
L 187.425622 119.503221 
L 193.501923 120.699836 
L 199.071866 121.56958 
L 204.641809 122.200671 
L 209.705393 122.554587 
L 214.768977 122.691887 
L 219.832561 122.609882 
L 224.896146 122.310177 
L 229.95973 121.79865 
L 235.529673 121.003405 
L 241.099615 119.982935 
L 247.175916 118.641396 
L 253.758576 116.962237 
L 261.860311 114.654106 
L 275.02563 110.622033 
L 286.671873 107.135058 
L 294.26725 105.082628 
L 300.849909 103.529687 
L 306.92621 102.329521 
L 312.496153 101.456131 
L 318.066096 100.821109 
L 323.12968 100.46345 
L 328.193264 100.322321 
L 333.256849 100.400489 
L 338.320433 100.69642 
L 343.384017 101.204313 
L 348.95396 101.995806 
L 354.523902 103.012868 
L 360.600203 104.351174 
L 367.182863 106.027507 
L 375.284598 108.333255 
L 388.449917 112.364293 
L 400.602519 115.997377 
L 408.197895 118.036504 
L 414.780555 119.574134 
L 420.856856 120.757506 
L 426.426799 121.613671 
L 431.996741 122.230137 
L 437.060326 122.570141 
L 442.12391 122.693226 
L 447.187494 122.596978 
L 452.251078 122.283284 
L 457.314663 121.758295 
L 462.884605 120.949165 
L 468.454548 119.916097 
L 474.530849 118.562632 
L 481.113508 116.873069 
L 489.215243 114.556214 
L 502.886921 110.364452 
L 514.026806 107.041464 
L 521.622182 104.999492 
L 528.204842 103.458594 
L 534.281143 102.271645 
L 539.851086 101.411815 
L 545.421028 100.791404 
L 550.484613 100.447649 
L 550.990971 100.425125 
L 550.990971 100.425125 
" style="fill:none;stroke:#0000ff;stroke-linecap:square;stroke-width:1.5;"/>
   </g>
   <g id="line2d_4">
    <path clip-path="url(#p2d29daac1a)" d="M 45.138905 131.504806 
L 56.785149 126.661756 
L 63.367808 124.172761 
L 68.937751 122.310109 
L 74.001335 120.862443 
L 78.558561 119.791536 
L 83.115787 118.963581 
L 87.166654 118.445583 
L 91.217522 118.141682 
L 95.268389 118.056862 
L 99.319256 118.192512 
L 103.370124 118.546409 
L 107.420991 119.112751 
L 111.978217 119.992132 
L 116.535443 121.110303 
L 121.599027 122.604417 
L 127.16897 124.50942 
L 133.245271 126.832367 
L 141.347006 130.181516 
L 157.044117 136.71681 
L 163.120418 138.98909 
L 168.690361 140.831776 
L 173.753945 142.257719 
L 178.311171 143.306638 
L 182.868396 144.110768 
L 186.919264 144.606446 
L 190.970131 144.88733 
L 195.020999 144.948816 
L 199.071866 144.789896 
L 203.122733 144.413175 
L 207.173601 143.82483 
L 211.730827 142.922124 
L 216.288052 141.782604 
L 221.351637 140.267628 
L 226.921579 138.34376 
L 232.99788 136.005774 
L 241.605974 132.431692 
L 255.78401 126.522671 
L 262.366669 124.047961 
L 267.936612 122.201638 
L 273.000196 120.771746 
L 277.557422 119.718835 
L 282.114648 118.910383 
L 286.165515 118.410661 
L 290.216382 118.12561 
L 294.26725 118.059901 
L 298.318117 118.214614 
L 302.368985 118.587211 
L 306.419852 119.171583 
L 310.977078 120.070082 
L 315.534304 121.205755 
L 320.597888 122.716977 
L 326.167831 124.637458 
L 332.244132 126.972756 
L 340.852225 130.545003 
L 355.030261 136.456275 
L 361.61292 138.934166 
L 367.182863 140.784115 
L 372.246447 142.217948 
L 376.803673 143.274845 
L 381.360899 144.087613 
L 385.411766 144.591377 
L 389.462634 144.880595 
L 393.513501 144.950525 
L 397.564368 144.800021 
L 401.615236 144.43155 
L 405.666103 143.851154 
L 410.223329 142.956868 
L 414.780555 141.825048 
L 419.844139 140.317588 
L 425.414082 138.400505 
L 431.490383 136.067911 
L 440.098476 132.49752 
L 454.78287 126.384201 
L 460.859172 124.102975 
L 466.429114 122.249411 
L 471.492698 120.811646 
L 476.049924 119.750769 
L 480.60715 118.93369 
L 484.658017 118.425888 
L 488.708885 118.132506 
L 492.759752 118.058354 
L 496.81062 118.204649 
L 500.861487 118.568991 
L 504.912354 119.145408 
L 509.46958 120.035475 
L 514.026806 121.163435 
L 519.09039 122.667123 
L 524.660333 124.580796 
L 530.736634 126.910674 
L 539.344727 130.479187 
L 550.990971 135.376937 
L 550.990971 135.376937 
" style="fill:none;stroke:#0000ff;stroke-linecap:square;stroke-width:1.5;"/>
   </g>
   <g id="line2d_5">
    <path clip-path="url(#p2d29daac1a)" d="M 45.138905 151.502767 
L 56.785149 147.86624 
L 63.367808 146.04681 
L 68.937751 144.736485 
L 74.001335 143.774018 
L 78.558561 143.121025 
L 83.115787 142.687959 
L 87.673013 142.486185 
L 92.230238 142.520998 
L 96.787464 142.791483 
L 101.34469 143.290543 
L 105.901916 144.005084 
L 110.9655 145.02876 
L 116.535443 146.395418 
L 123.118102 148.263686 
L 132.232554 151.119107 
L 145.397873 155.234619 
L 151.980533 157.04156 
L 157.550475 158.33775 
L 162.614059 159.285015 
L 167.171285 159.922832 
L 171.728511 160.339714 
L 176.285737 160.524724 
L 180.842963 160.473007 
L 185.400189 160.185919 
L 189.957414 159.670995 
L 194.51464 158.941744 
L 199.578224 157.903546 
L 205.148167 156.523668 
L 211.730827 154.644173 
L 220.845278 151.782091 
L 233.504239 147.824102 
L 240.086898 146.010155 
L 245.656841 144.706048 
L 250.720425 143.750275 
L 255.277651 143.10397 
L 259.834877 142.678041 
L 264.392103 142.483664 
L 268.949329 142.525939 
L 273.506554 142.803757 
L 278.06378 143.309829 
L 282.621006 144.030874 
L 287.68459 145.060978 
L 293.254533 146.433495 
L 299.837193 148.306749 
L 308.951644 151.165157 
L 321.610605 155.128093 
L 328.193264 156.94897 
L 333.763207 158.26094 
L 338.826791 159.22518 
L 343.384017 159.879946 
L 347.941243 160.314904 
L 352.498469 160.51864 
L 357.055694 160.485809 
L 361.61292 160.217272 
L 366.170146 159.720075 
L 370.727372 159.007264 
L 375.790956 157.985298 
L 381.360899 156.620201 
L 387.943558 154.753265 
L 397.05801 151.89865 
L 410.223329 147.782059 
L 416.805989 145.973642 
L 422.375931 144.675787 
L 427.439515 143.726734 
L 431.996741 143.087135 
L 436.553967 142.668353 
L 441.111193 142.481378 
L 445.668419 142.531115 
L 450.225645 142.816259 
L 454.78287 143.329328 
L 459.340096 144.05686 
L 464.40368 145.093364 
L 469.973623 146.471703 
L 476.556283 148.349895 
L 485.670734 151.211216 
L 498.329695 155.170257 
L 504.912354 156.985664 
L 510.482297 158.291424 
L 515.545881 159.248976 
L 520.103107 159.897058 
L 524.660333 160.324883 
L 529.217559 160.521224 
L 533.774785 160.480929 
L 538.33201 160.205057 
L 542.889236 159.700846 
L 547.446462 158.981525 
L 550.990971 158.28523 
L 550.990971 158.28523 
" style="fill:none;stroke:#0000ff;stroke-linecap:square;stroke-width:1.5;"/>
   </g>
   <g id="line2d_6">
    <path clip-path="url(#p2d29daac1a)" d="M 45.138905 171.500728 
L 55.266073 167.27075 
L 60.836016 165.189841 
L 65.393242 163.709911 
L 69.444109 162.604865 
L 73.494977 161.727523 
L 77.545844 161.100339 
L 81.090353 160.76955 
L 84.634862 160.649167 
L 88.179371 160.741553 
L 91.72388 161.044896 
L 95.268389 161.553247 
L 99.319256 162.372289 
L 103.370124 163.424986 
L 107.92735 164.854801 
L 112.990934 166.693595 
L 119.067235 169.146586 
L 137.802497 176.912376 
L 142.866081 178.674898 
L 147.423307 180.017921 
L 151.474174 180.981373 
L 155.525042 181.702154 
L 159.06955 182.119105 
L 162.614059 182.32786 
L 166.158568 182.324326 
L 169.703077 182.108572 
L 173.247586 181.684829 
L 177.298454 180.956709 
L 181.349321 179.986549 
L 185.400189 178.799182 
L 189.957414 177.241797 
L 195.527357 175.091481 
L 203.629092 171.684325 
L 214.262619 167.23978 
L 219.832561 165.162495 
L 224.389787 163.686522 
L 228.440655 162.585635 
L 232.491522 161.712942 
L 236.542389 161.090782 
L 240.086898 160.764593 
L 243.631407 160.648909 
L 247.175916 160.745998 
L 250.720425 161.053956 
L 254.264934 161.566746 
L 258.315802 162.39053 
L 262.366669 163.447504 
L 266.923895 164.881436 
L 271.987479 166.723789 
L 278.06378 169.179447 
L 296.799042 176.941519 
L 301.862626 178.700113 
L 306.419852 180.038734 
L 310.470719 180.997703 
L 314.521587 181.713582 
L 318.066096 182.125999 
L 321.610605 182.330086 
L 325.155114 182.32184 
L 328.699623 182.101423 
L 332.244132 181.673156 
L 336.294999 180.940152 
L 340.345866 179.965532 
L 344.396734 178.774242 
L 348.95396 177.213213 
L 354.523902 175.059707 
L 362.625637 171.650678 
L 373.259164 167.208851 
L 378.829107 165.13521 
L 383.386333 163.663209 
L 387.4372 162.56649 
L 391.488067 161.698456 
L 395.538935 161.081325 
L 399.083444 160.75974 
L 402.627953 160.648755 
L 406.172462 160.750545 
L 409.716971 161.063117 
L 413.26148 161.58034 
L 417.312347 162.408859 
L 421.363214 163.470099 
L 425.92044 164.908135 
L 430.984024 166.754028 
L 437.566684 169.425148 
L 454.78287 176.591044 
L 459.846455 178.395322 
L 464.40368 179.785533 
L 468.454548 180.797298 
L 472.505415 181.571104 
L 476.049924 182.037252 
L 479.594433 182.296809 
L 483.138942 182.344686 
L 486.683451 182.179944 
L 490.22796 181.805813 
L 493.772469 181.229629 
L 497.823336 180.338387 
L 501.874204 179.220931 
L 506.43143 177.729215 
L 511.495014 175.837565 
L 518.077673 173.131632 
L 533.268426 166.78298 
L 538.33201 164.933719 
L 542.889236 163.491773 
L 546.940104 162.426464 
L 550.990971 161.593425 
L 550.990971 161.593425 
" style="fill:none;stroke:#0000ff;stroke-linecap:square;stroke-width:1.5;"/>
   </g>
   <g id="line2d_7">
    <path clip-path="url(#p2d29daac1a)" d="M 45.138905 191.49869 
L 55.266073 187.971622 
L 60.836016 186.279485 
L 65.393242 185.117773 
L 69.444109 184.293679 
L 73.494977 183.692638 
L 77.545844 183.333254 
L 81.090353 183.225967 
L 84.634862 183.314879 
L 88.685729 183.653821 
L 92.736597 184.235624 
L 96.787464 185.042275 
L 101.34469 186.187182 
L 106.408274 187.700979 
L 112.990934 189.931059 
L 129.194403 195.566652 
L 134.257988 197.042016 
L 138.815213 198.142695 
L 142.866081 198.903805 
L 146.916948 199.43567 
L 150.967816 199.721822 
L 154.512325 199.763487 
L 158.056834 199.609141 
L 162.107701 199.197637 
L 166.158568 198.54779 
L 170.209436 197.679718 
L 174.766662 196.475988 
L 179.830246 194.912262 
L 186.919264 192.464574 
L 200.084583 187.858932 
L 205.654526 186.183077 
L 210.211751 185.038927 
L 214.262619 184.233061 
L 218.313486 183.652122 
L 222.364354 183.314097 
L 225.908863 183.226007 
L 229.453371 183.334117 
L 233.504239 183.694413 
L 237.555106 184.296313 
L 241.605974 185.121184 
L 246.1632 186.283642 
L 251.226784 187.812485 
L 257.809443 190.053997 
L 273.506554 195.516785 
L 278.570139 196.999455 
L 283.127364 198.108479 
L 287.178232 198.878144 
L 291.229099 199.419357 
L 295.279967 199.715363 
L 298.824476 199.765825 
L 302.368985 199.62022 
L 306.419852 199.218372 
L 310.470719 198.57754 
L 314.521587 197.717561 
L 319.078813 196.521525 
L 324.142397 194.964246 
L 331.231415 192.521317 
L 344.903092 187.747074 
L 349.966677 186.227001 
L 354.523902 185.07479 
L 358.57477 184.260568 
L 362.625637 183.670422 
L 366.676505 183.322623 
L 370.221014 183.225754 
L 373.765522 183.32509 
L 377.81639 183.675635 
L 381.867257 184.268364 
L 385.918125 185.084928 
L 390.47535 186.239395 
L 395.538935 187.761403 
L 402.121594 189.997752 
L 418.325064 195.625614 
L 423.388648 197.09221 
L 427.945874 198.182911 
L 431.996741 198.933817 
L 436.047609 199.454547 
L 440.098476 199.728981 
L 443.642985 199.760199 
L 447.187494 199.595483 
L 451.238361 199.172538 
L 455.289229 198.512027 
L 459.340096 197.634399 
L 463.897322 196.421607 
L 469.467265 194.682959 
L 477.062641 192.034163 
L 488.708885 187.961934 
L 494.278828 186.271177 
L 498.836053 185.11096 
L 502.886921 184.288421 
L 506.937788 183.689096 
L 510.988656 183.33154 
L 514.533165 183.225896 
L 518.077673 183.316454 
L 522.128541 183.657229 
L 526.179408 184.240759 
L 530.230276 185.048979 
L 534.787501 186.1954 
L 539.851086 187.7105 
L 546.433745 189.941579 
L 550.990971 191.571916 
L 550.990971 191.571916 
" style="fill:none;stroke:#0000ff;stroke-linecap:square;stroke-width:1.5;"/>
   </g>
   <g id="line2d_8">
    <path clip-path="url(#p2d29daac1a)" d="M 45.138905 211.496651 
L 54.759715 208.363917 
L 59.823299 206.935914 
L 64.380525 205.872642 
L 68.431392 205.1461 
L 72.48226 204.653412 
L 76.026769 204.428632 
L 79.571278 204.403269 
L 83.115787 204.578038 
L 87.166654 205.016255 
L 91.217522 205.693107 
L 95.774747 206.708463 
L 100.838332 208.095729 
L 106.914633 210.010442 
L 123.118102 215.260603 
L 128.181687 216.587003 
L 132.738912 217.532619 
L 136.78978 218.138281 
L 140.840647 218.49937 
L 144.385156 218.604011 
L 147.929665 218.508126 
L 151.474174 218.21442 
L 155.525042 217.647402 
L 159.575909 216.853888 
L 164.133135 215.727124 
L 169.196719 214.246717 
L 176.792095 211.759132 
L 186.919264 208.446571 
L 192.489206 206.87564 
L 197.046432 205.824713 
L 201.0973 205.111038 
L 205.148167 204.632509 
L 208.692676 204.420768 
L 212.237185 204.408665 
L 215.781694 204.596542 
L 219.832561 205.04908 
L 223.883429 205.739044 
L 228.440655 206.767107 
L 233.504239 208.165267 
L 239.58054 210.087742 
L 255.277651 215.182427 
L 260.341235 216.522519 
L 264.898461 217.483651 
L 268.949329 218.105045 
L 273.000196 218.48309 
L 276.544705 218.603081 
L 280.089214 218.522572 
L 283.633723 218.243834 
L 287.68459 217.692884 
L 291.735458 216.913762 
L 296.292684 215.80053 
L 301.356268 214.331128 
L 308.445286 212.021255 
L 319.585171 208.375445 
L 324.648755 206.945767 
L 329.205981 205.8805 
L 333.256849 205.151874 
L 337.307716 204.656891 
L 340.852225 204.429994 
L 344.396734 204.402475 
L 347.941243 204.575111 
L 351.99211 205.010994 
L 356.042978 205.685706 
L 360.093845 206.574403 
L 364.651071 207.788948 
L 370.221014 209.501489 
L 389.968992 215.811509 
L 394.526218 216.922689 
L 398.577085 217.699635 
L 402.627953 218.24816 
L 406.67882 218.548067 
L 410.223329 218.597623 
L 413.767838 218.446833 
L 417.818705 218.034892 
L 421.869573 217.382185 
L 425.92044 216.512748 
L 430.477666 215.315708 
L 436.047609 213.617458 
L 456.808304 207.016652 
L 461.36553 205.937224 
L 465.416397 205.193769 
L 469.467265 204.682413 
L 473.011774 204.440398 
L 476.556283 204.397468 
L 480.100792 204.554833 
L 484.151659 204.97399 
L 488.202526 205.633338 
L 492.253394 206.508599 
L 496.81062 207.710947 
L 502.380562 209.413556 
L 522.634899 215.873982 
L 527.192125 216.973349 
L 531.242993 217.737795 
L 535.29386 218.272415 
L 539.344727 218.557523 
L 542.889236 218.593825 
L 546.433745 218.429889 
L 550.484613 218.00353 
L 550.990971 217.932966 
L 550.990971 217.932966 
" style="fill:none;stroke:#0000ff;stroke-linecap:square;stroke-width:1.5;"/>
   </g>
   <g id="line2d_9">
    <path clip-path="url(#p2d29daac1a)" d="M 45.138905 231.494612 
L 53.24064 227.762232 
L 57.797866 225.905493 
L 61.848733 224.508516 
L 65.393242 223.531943 
L 68.431392 222.903653 
L 71.469543 222.484426 
L 74.507694 222.284464 
L 77.545844 222.308634 
L 80.583995 222.556346 
L 83.622145 223.021573 
L 86.660296 223.692993 
L 90.204805 224.714863 
L 93.749314 225.961134 
L 98.30654 227.826106 
L 104.382841 230.605105 
L 115.016368 235.508235 
L 119.573593 237.327103 
L 123.118102 238.526061 
L 126.662611 239.492288 
L 129.700762 240.110774 
L 132.738912 240.519583 
L 135.777063 240.708767 
L 138.815213 240.673723 
L 141.853364 240.415303 
L 144.891515 239.939796 
L 147.929665 239.258773 
L 151.474174 238.226868 
L 155.018683 236.972134 
L 159.575909 235.099034 
L 165.65221 232.314692 
L 175.779378 227.635125 
L 180.336604 225.795173 
L 184.387472 224.418211 
L 187.931981 223.462385 
L 190.970131 222.85374 
L 194.008282 222.455371 
L 197.046432 222.276975 
L 200.084583 222.322892 
L 203.122733 222.592006 
L 206.160884 223.077766 
L 209.199035 223.768352 
L 212.743543 224.810233 
L 216.794411 226.26951 
L 221.351637 228.177432 
L 227.934296 231.223524 
L 236.542389 235.198646 
L 241.099615 237.059055 
L 245.150483 238.460434 
L 248.694992 239.441585 
L 251.733142 240.074219 
L 254.771293 240.498065 
L 257.809443 240.702811 
L 260.847594 240.683472 
L 263.885744 240.440521 
L 266.923895 239.979869 
L 269.962045 239.312726 
L 273.506554 238.295333 
L 277.051063 237.052845 
L 281.101931 235.410278 
L 286.671873 232.891394 
L 298.824476 227.293679 
L 303.381701 225.501538 
L 306.92621 224.329523 
L 310.470719 223.394662 
L 313.50887 222.8058 
L 316.547021 222.428381 
L 319.585171 222.271591 
L 322.623322 222.339246 
L 325.661472 222.629698 
L 328.699623 223.135881 
L 331.737773 223.845475 
L 335.282282 224.90713 
L 339.33315 226.385045 
L 343.890375 228.307938 
L 350.473035 231.362944 
L 359.081128 235.325944 
L 363.638354 237.169661 
L 367.689221 238.551095 
L 371.23373 239.511548 
L 374.271881 240.124569 
L 377.310031 240.527578 
L 380.348182 240.710767 
L 383.386333 240.669679 
L 386.424483 240.405314 
L 389.462634 239.924105 
L 392.500784 239.237762 
L 396.045293 238.200305 
L 399.589802 236.940898 
L 404.147028 235.063326 
L 410.223329 232.276083 
L 420.350498 227.599957 
L 424.907723 225.764745 
L 428.452232 224.549142 
L 431.996741 223.563424 
L 435.034892 222.926454 
L 438.073042 222.497993 
L 441.111193 222.288466 
L 444.149343 222.302973 
L 447.187494 222.541161 
L 450.225645 222.997232 
L 453.263795 223.66009 
L 456.808304 224.672996 
L 460.352813 225.911688 
L 464.40368 227.550923 
L 469.973623 230.067223 
L 482.126225 235.667945 
L 486.683451 237.464102 
L 490.22796 238.640145 
L 493.772469 239.57968 
L 496.81062 240.172948 
L 499.84877 240.555027 
L 502.886921 240.716619 
L 505.925071 240.653791 
L 508.963222 240.368072 
L 512.001372 239.866416 
L 515.039523 239.161029 
L 518.584032 238.103745 
L 522.634899 236.629941 
L 527.192125 234.710335 
L 533.774785 231.657248 
L 542.382878 227.691478 
L 546.940104 225.844017 
L 550.990971 224.458126 
L 550.990971 224.458126 
" style="fill:none;stroke:#0000ff;stroke-linecap:square;stroke-width:1.5;"/>
   </g>
   <g id="line2d_10">
    <path clip-path="url(#p2d29daac1a)" d="M 45.138905 251.492573 
L 52.227923 246.943147 
L 56.27879 244.612778 
L 59.823299 242.852665 
L 62.86145 241.605622 
L 65.393242 240.778244 
L 67.925034 240.160943 
L 70.456826 239.765822 
L 72.988618 239.60063 
L 75.52041 239.668605 
L 78.052203 239.968414 
L 80.583995 240.494179 
L 83.115787 241.235591 
L 86.153937 242.389189 
L 89.192088 243.799631 
L 92.736597 245.716324 
L 96.787464 248.173516 
L 104.382841 253.125465 
L 109.952783 256.624426 
L 113.497292 258.618319 
L 116.535443 260.112389 
L 119.573593 261.363259 
L 122.105385 262.194183 
L 124.637178 262.815278 
L 127.16897 263.214368 
L 129.700762 263.383626 
L 132.232554 263.319736 
L 134.764346 263.023948 
L 137.296138 262.502063 
L 139.82793 261.764314 
L 142.866081 260.614722 
L 145.904231 259.207759 
L 149.44874 257.294323 
L 153.499608 254.839651 
L 160.588626 250.219592 
L 166.158568 246.69022 
L 170.209436 244.390223 
L 173.247586 242.892902 
L 176.285737 241.638212 
L 178.817529 240.803748 
L 181.349321 240.178862 
L 183.881113 239.775805 
L 186.412905 239.602481 
L 188.944698 239.662287 
L 191.47649 239.954052 
L 194.008282 240.472053 
L 196.540074 241.206136 
L 199.578224 242.351714 
L 202.616375 243.755191 
L 206.160884 245.665357 
L 210.211751 248.117495 
L 217.300769 252.736528 
L 222.870712 256.268206 
L 226.921579 258.571485 
L 229.95973 260.072048 
L 232.99788 261.330551 
L 235.529673 262.168549 
L 238.061465 262.797222 
L 240.593257 263.204244 
L 243.125049 263.381633 
L 245.656841 263.325911 
L 248.188633 263.038172 
L 250.720425 262.524056 
L 253.252217 261.793645 
L 256.290368 260.652088 
L 259.328519 259.252105 
L 262.873028 257.34522 
L 266.923895 254.895632 
L 274.012913 250.277651 
L 279.582856 246.743689 
L 283.633723 244.437143 
L 286.671873 242.933346 
L 289.710024 241.671039 
L 292.241816 240.82951 
L 294.773608 240.197054 
L 297.3054 239.786071 
L 299.837193 239.604618 
L 302.368985 239.656254 
L 304.900777 239.939967 
L 307.432569 240.450193 
L 309.964361 241.176929 
L 313.002512 242.314458 
L 316.040662 243.710939 
L 319.585171 245.614531 
L 323.636038 248.061555 
L 330.725056 252.678454 
L 336.294999 256.214679 
L 340.345866 258.524479 
L 343.384017 260.031501 
L 346.422168 261.297605 
L 348.95396 262.142659 
L 351.485752 262.778894 
L 354.017544 263.193837 
L 356.549336 263.379352 
L 359.081128 263.331801 
L 361.61292 263.052117 
L 364.144712 262.545783 
L 366.676505 261.822728 
L 369.714655 260.689233 
L 372.752806 259.296264 
L 376.297315 257.395976 
L 380.348182 254.95153 
L 387.4372 250.33574 
L 393.007143 246.797273 
L 397.05801 244.484233 
L 400.096161 242.973996 
L 403.134311 241.704102 
L 405.666103 240.855529 
L 408.197895 240.215518 
L 410.729687 239.796618 
L 413.26148 239.607041 
L 415.793272 239.650507 
L 418.325064 239.926161 
L 420.856856 240.428599 
L 423.388648 241.14797 
L 426.426799 242.277424 
L 429.464949 243.666873 
L 433.009458 245.563846 
L 437.060326 248.005698 
L 443.642985 252.288004 
L 449.719286 256.161039 
L 453.770154 258.477305 
L 456.808304 259.990748 
L 459.846455 261.264424 
L 462.378247 262.116512 
L 464.910039 262.760294 
L 467.441831 263.18315 
L 469.973623 263.376786 
L 472.505415 263.337407 
L 475.037207 263.065784 
L 477.569 262.567245 
L 480.100792 261.851562 
L 482.632584 260.932769 
L 485.670734 259.587738 
L 489.215243 257.732901 
L 493.266111 255.32449 
L 499.342412 251.39264 
L 506.43143 246.85097 
L 510.482297 244.531492 
L 513.520448 243.014852 
L 516.558598 241.737402 
L 519.09039 240.881804 
L 521.622182 240.234254 
L 524.153975 239.807446 
L 526.685767 239.609751 
L 529.217559 239.645044 
L 531.749351 239.912633 
L 534.281143 240.407271 
L 536.812935 241.119261 
L 539.344727 242.034641 
L 542.382878 243.376043 
L 545.927387 245.227413 
L 549.978254 247.633034 
L 550.990971 248.269598 
L 550.990971 248.269598 
" style="fill:none;stroke:#0000ff;stroke-linecap:square;stroke-width:1.5;"/>
   </g>
   <g id="line2d_11">
    <path clip-path="url(#p2d29daac1a)" d="M 550.990971 77.208827 
L 560.621421 78.768889 
L 569.23814 79.943903 
L 577.347993 80.827333 
L 584.95098 81.438883 
L 592.553966 81.82658 
L 600.156953 81.981682 
L 607.75994 81.900691 
L 615.362927 81.585435 
L 622.965914 81.04302 
L 630.568901 80.285678 
L 638.678754 79.260274 
L 647.802338 77.870636 
L 657.939654 76.086806 
L 670.611299 73.608566 
L 707.105637 66.308559 
L 717.242953 64.603141 
L 725.859671 63.368539 
L 733.969524 62.421307 
L 741.572511 61.744627 
L 749.175498 61.288155 
L 756.778485 61.062184 
L 764.381472 61.071808 
L 771.984459 61.316811 
L 779.587446 61.791669 
L 787.190433 62.485674 
L 795.300286 63.449777 
L 803.917004 64.700013 
L 803.917004 64.700013 
" style="fill:none;stroke:#008000;stroke-linecap:square;stroke-width:1.5;"/>
   </g>
   <g id="line2d_12">
    <path clip-path="url(#p2d29daac1a)" d="M 550.990971 117.44993 
L 556.566495 118.112081 
L 562.142019 118.551958 
L 567.717542 118.754758 
L 572.7862 118.727496 
L 578.361724 118.465652 
L 583.937248 117.969636 
L 589.512772 117.256139 
L 595.595161 116.258136 
L 602.691282 114.856681 
L 611.814867 112.798859 
L 633.10323 107.882914 
L 640.199351 106.52369 
L 646.281741 105.572033 
L 651.857265 104.907595 
L 657.432789 104.465229 
L 663.008312 104.259822 
L 668.07697 104.284687 
L 673.652494 104.543944 
L 679.228018 105.037511 
L 684.803542 105.748779 
L 690.885931 106.74469 
L 697.982052 108.144258 
L 707.105637 110.200684 
L 728.394 115.118309 
L 735.490121 116.479532 
L 741.572511 117.43336 
L 747.148035 118.100083 
L 752.723559 118.544936 
L 758.299082 118.752949 
L 763.36774 118.730482 
L 768.943264 118.473812 
L 774.518788 117.982696 
L 780.094312 117.27366 
L 786.176701 116.279844 
L 793.272822 114.882169 
L 801.889541 112.946202 
L 803.917004 112.467906 
L 803.917004 112.467906 
" style="fill:none;stroke:#008000;stroke-linecap:square;stroke-width:1.5;"/>
   </g>
   <g id="line2d_13">
    <path clip-path="url(#p2d29daac1a)" d="M 550.990971 162.922831 
L 554.032166 163.182183 
L 557.073361 163.212077 
L 560.114555 163.011926 
L 563.15575 162.585661 
L 566.196945 161.941657 
L 569.23814 161.092567 
L 572.7862 159.865219 
L 576.841127 158.191073 
L 581.402919 156.032027 
L 587.485309 152.860313 
L 599.143222 146.70352 
L 603.705014 144.574882 
L 607.75994 142.93669 
L 611.308001 141.746679 
L 614.349196 140.933169 
L 617.390391 140.327314 
L 620.431585 139.941016 
L 623.47278 139.781865 
L 626.513975 139.852988 
L 629.55517 140.152986 
L 632.596365 140.675966 
L 635.637559 141.411654 
L 639.18562 142.519293 
L 642.73368 143.867016 
L 646.788607 145.65479 
L 651.857265 148.16835 
L 659.967118 152.50661 
L 667.063239 156.209191 
L 671.625031 158.348473 
L 675.679957 159.999188 
L 679.228018 161.202168 
L 682.776078 162.145931 
L 685.817273 162.729233 
L 688.858468 163.091976 
L 691.899663 163.227033 
L 694.940858 163.13175 
L 697.982052 162.808 
L 701.023247 162.262143 
L 704.064442 161.504903 
L 707.612503 160.374357 
L 711.160563 159.006718 
L 715.21549 157.200522 
L 720.284148 154.671362 
L 729.407732 149.783058 
L 735.490121 146.63878 
L 740.051914 144.517686 
L 744.10684 142.888331 
L 747.654901 141.707447 
L 750.696095 140.902606 
L 753.73729 140.30602 
L 756.778485 139.929409 
L 759.81968 139.780173 
L 762.860875 139.861244 
L 765.902069 140.171028 
L 768.943264 140.70344 
L 771.984459 141.44802 
L 775.532519 142.565119 
L 779.08058 143.921077 
L 783.135506 145.716481 
L 788.204164 148.236529 
L 796.820883 152.850045 
L 803.410138 156.274181 
L 803.917004 156.523264 
L 803.917004 156.523264 
" style="fill:none;stroke:#008000;stroke-linecap:square;stroke-width:1.5;"/>
   </g>
   <g id="text_1">
    <!-- Input Sequence -->
    <g style="fill:#0000ff;" transform="translate(172.622438 31.515)scale(0.32 -0.32)">
     <defs>
      <path d="M 628 4666 
L 1259 4666 
L 1259 0 
L 628 0 
L 628 4666 
z
" id="DejaVuSans-49" transform="scale(0.015625)"/>
      <path d="M 3513 2113 
L 3513 0 
L 2938 0 
L 2938 2094 
Q 2938 2591 2744 2837 
Q 2550 3084 2163 3084 
Q 1697 3084 1428 2787 
Q 1159 2491 1159 1978 
L 1159 0 
L 581 0 
L 581 3500 
L 1159 3500 
L 1159 2956 
Q 1366 3272 1645 3428 
Q 1925 3584 2291 3584 
Q 2894 3584 3203 3211 
Q 3513 2838 3513 2113 
z
" id="DejaVuSans-6e" transform="scale(0.015625)"/>
      <path d="M 1159 525 
L 1159 -1331 
L 581 -1331 
L 581 3500 
L 1159 3500 
L 1159 2969 
Q 1341 3281 1617 3432 
Q 1894 3584 2278 3584 
Q 2916 3584 3314 3078 
Q 3713 2572 3713 1747 
Q 3713 922 3314 415 
Q 2916 -91 2278 -91 
Q 1894 -91 1617 61 
Q 1341 213 1159 525 
z
M 3116 1747 
Q 3116 2381 2855 2742 
Q 2594 3103 2138 3103 
Q 1681 3103 1420 2742 
Q 1159 2381 1159 1747 
Q 1159 1113 1420 752 
Q 1681 391 2138 391 
Q 2594 391 2855 752 
Q 3116 1113 3116 1747 
z
" id="DejaVuSans-70" transform="scale(0.015625)"/>
      <path d="M 544 1381 
L 544 3500 
L 1119 3500 
L 1119 1403 
Q 1119 906 1312 657 
Q 1506 409 1894 409 
Q 2359 409 2629 706 
Q 2900 1003 2900 1516 
L 2900 3500 
L 3475 3500 
L 3475 0 
L 2900 0 
L 2900 538 
Q 2691 219 2414 64 
Q 2138 -91 1772 -91 
Q 1169 -91 856 284 
Q 544 659 544 1381 
z
M 1991 3584 
L 1991 3584 
z
" id="DejaVuSans-75" transform="scale(0.015625)"/>
      <path d="M 1172 4494 
L 1172 3500 
L 2356 3500 
L 2356 3053 
L 1172 3053 
L 1172 1153 
Q 1172 725 1289 603 
Q 1406 481 1766 481 
L 2356 481 
L 2356 0 
L 1766 0 
Q 1100 0 847 248 
Q 594 497 594 1153 
L 594 3053 
L 172 3053 
L 172 3500 
L 594 3500 
L 594 4494 
L 1172 4494 
z
" id="DejaVuSans-74" transform="scale(0.015625)"/>
      <path id="DejaVuSans-20" transform="scale(0.015625)"/>
      <path d="M 3425 4513 
L 3425 3897 
Q 3066 4069 2747 4153 
Q 2428 4238 2131 4238 
Q 1616 4238 1336 4038 
Q 1056 3838 1056 3469 
Q 1056 3159 1242 3001 
Q 1428 2844 1947 2747 
L 2328 2669 
Q 3034 2534 3370 2195 
Q 3706 1856 3706 1288 
Q 3706 609 3251 259 
Q 2797 -91 1919 -91 
Q 1588 -91 1214 -16 
Q 841 59 441 206 
L 441 856 
Q 825 641 1194 531 
Q 1563 422 1919 422 
Q 2459 422 2753 634 
Q 3047 847 3047 1241 
Q 3047 1584 2836 1778 
Q 2625 1972 2144 2069 
L 1759 2144 
Q 1053 2284 737 2584 
Q 422 2884 422 3419 
Q 422 4038 858 4394 
Q 1294 4750 2059 4750 
Q 2388 4750 2728 4690 
Q 3069 4631 3425 4513 
z
" id="DejaVuSans-53" transform="scale(0.015625)"/>
      <path d="M 3597 1894 
L 3597 1613 
L 953 1613 
Q 991 1019 1311 708 
Q 1631 397 2203 397 
Q 2534 397 2845 478 
Q 3156 559 3463 722 
L 3463 178 
Q 3153 47 2828 -22 
Q 2503 -91 2169 -91 
Q 1331 -91 842 396 
Q 353 884 353 1716 
Q 353 2575 817 3079 
Q 1281 3584 2069 3584 
Q 2775 3584 3186 3129 
Q 3597 2675 3597 1894 
z
M 3022 2063 
Q 3016 2534 2758 2815 
Q 2500 3097 2075 3097 
Q 1594 3097 1305 2825 
Q 1016 2553 972 2059 
L 3022 2063 
z
" id="DejaVuSans-65" transform="scale(0.015625)"/>
      <path d="M 947 1747 
Q 947 1113 1208 752 
Q 1469 391 1925 391 
Q 2381 391 2643 752 
Q 2906 1113 2906 1747 
Q 2906 2381 2643 2742 
Q 2381 3103 1925 3103 
Q 1469 3103 1208 2742 
Q 947 2381 947 1747 
z
M 2906 525 
Q 2725 213 2448 61 
Q 2172 -91 1784 -91 
Q 1150 -91 751 415 
Q 353 922 353 1747 
Q 353 2572 751 3078 
Q 1150 3584 1784 3584 
Q 2172 3584 2448 3432 
Q 2725 3281 2906 2969 
L 2906 3500 
L 3481 3500 
L 3481 -1331 
L 2906 -1331 
L 2906 525 
z
" id="DejaVuSans-71" transform="scale(0.015625)"/>
      <path d="M 3122 3366 
L 3122 2828 
Q 2878 2963 2633 3030 
Q 2388 3097 2138 3097 
Q 1578 3097 1268 2742 
Q 959 2388 959 1747 
Q 959 1106 1268 751 
Q 1578 397 2138 397 
Q 2388 397 2633 464 
Q 2878 531 3122 666 
L 3122 134 
Q 2881 22 2623 -34 
Q 2366 -91 2075 -91 
Q 1284 -91 818 406 
Q 353 903 353 1747 
Q 353 2603 823 3093 
Q 1294 3584 2113 3584 
Q 2378 3584 2631 3529 
Q 2884 3475 3122 3366 
z
" id="DejaVuSans-63" transform="scale(0.015625)"/>
     </defs>
     <use xlink:href="#DejaVuSans-49"/>
     <use x="29.492188" xlink:href="#DejaVuSans-6e"/>
     <use x="92.871094" xlink:href="#DejaVuSans-70"/>
     <use x="156.347656" xlink:href="#DejaVuSans-75"/>
     <use x="219.726562" xlink:href="#DejaVuSans-74"/>
     <use x="258.935547" xlink:href="#DejaVuSans-20"/>
     <use x="290.722656" xlink:href="#DejaVuSans-53"/>
     <use x="354.199219" xlink:href="#DejaVuSans-65"/>
     <use x="415.722656" xlink:href="#DejaVuSans-71"/>
     <use x="479.199219" xlink:href="#DejaVuSans-75"/>
     <use x="542.578125" xlink:href="#DejaVuSans-65"/>
     <use x="604.101562" xlink:href="#DejaVuSans-6e"/>
     <use x="667.480469" xlink:href="#DejaVuSans-63"/>
     <use x="722.460938" xlink:href="#DejaVuSans-65"/>
    </g>
   </g>
   <g id="text_2">
    <!-- Output Sequence -->
    <g style="fill:#008000;" transform="translate(537.863988 31.515)scale(0.32 -0.32)">
     <defs>
      <path d="M 2522 4238 
Q 1834 4238 1429 3725 
Q 1025 3213 1025 2328 
Q 1025 1447 1429 934 
Q 1834 422 2522 422 
Q 3209 422 3611 934 
Q 4013 1447 4013 2328 
Q 4013 3213 3611 3725 
Q 3209 4238 2522 4238 
z
M 2522 4750 
Q 3503 4750 4090 4092 
Q 4678 3434 4678 2328 
Q 4678 1225 4090 567 
Q 3503 -91 2522 -91 
Q 1538 -91 948 565 
Q 359 1222 359 2328 
Q 359 3434 948 4092 
Q 1538 4750 2522 4750 
z
" id="DejaVuSans-4f" transform="scale(0.015625)"/>
     </defs>
     <use xlink:href="#DejaVuSans-4f"/>
     <use x="78.710938" xlink:href="#DejaVuSans-75"/>
     <use x="142.089844" xlink:href="#DejaVuSans-74"/>
     <use x="181.298828" xlink:href="#DejaVuSans-70"/>
     <use x="244.775391" xlink:href="#DejaVuSans-75"/>
     <use x="308.154297" xlink:href="#DejaVuSans-74"/>
     <use x="347.363281" xlink:href="#DejaVuSans-20"/>
     <use x="379.150391" xlink:href="#DejaVuSans-53"/>
     <use x="442.626953" xlink:href="#DejaVuSans-65"/>
     <use x="504.150391" xlink:href="#DejaVuSans-71"/>
     <use x="567.626953" xlink:href="#DejaVuSans-75"/>
     <use x="631.005859" xlink:href="#DejaVuSans-65"/>
     <use x="692.529297" xlink:href="#DejaVuSans-6e"/>
     <use x="755.908203" xlink:href="#DejaVuSans-63"/>
     <use x="810.888672" xlink:href="#DejaVuSans-65"/>
    </g>
   </g>
  </g>
 </g>
 <defs>
  <clipPath id="p2d29daac1a">
   <rect height="222.587509" width="834.655909" x="7.2" y="50.919631"/>
  </clipPath>
 </defs>
</svg>
