<?xml version="1.0" encoding="utf-8" standalone="no"?>
<!DOCTYPE svg PUBLIC "-//W3C//DTD SVG 1.1//EN"
  "http://www.w3.org/Graphics/SVG/1.1/DTD/svg11.dtd">
<svg height="280.575601pt" version="1.1" viewBox="0 0 831.348409 280.575601" width="831.348409pt" xmlns="http://www.w3.org/2000/svg" xmlns:xlink="http://www.w3.org/1999/xlink">
 <metadata>
  <rdf:RDF xmlns:cc="http://creativecommons.org/ns#" xmlns:dc="http://purl.org/dc/elements/1.1/" xmlns:rdf="http://www.w3.org/1999/02/22-rdf-syntax-ns#">
   <cc:Work>
    <dc:type rdf:resource="http://purl.org/dc/dcmitype/StillImage"/>
    <dc:date>2024-01-26T02:46:52.362591</dc:date>
    <dc:format>image/svg+xml</dc:format>
    <dc:creator>
     <cc:Agent>
      <dc:title>Matplotlib v3.4.3, https://matplotlib.org/</dc:title>
     </cc:Agent>
    </dc:creator>
   </cc:Work>
  </rdf:RDF>
 </metadata>
 <defs>
  <style type="text/css">*{stroke-linecap:butt;stroke-linejoin:round;}</style>
 </defs>
 <g id="figure_1">
  <g id="patch_1">
   <path d="M 0 280.575601 
L 831.348409 280.575601 
L 831.348409 0 
L 0 0 
z
" style="fill:#ffffff;"/>
  </g>
  <g id="axes_1">
   <g id="line2d_1">
    <path clip-path="url(#p7a34b90189)" d="M 44.334019 66.969249 
L 66.636732 63.88652 
L 79.027129 62.403948 
L 89.435062 61.37506 
L 98.851764 60.655351 
L 107.772849 60.183238 
L 116.693935 59.930836 
L 125.61502 59.906319 
L 134.536106 60.110478 
L 143.457191 60.536706 
L 152.873893 61.212175 
L 162.78621 62.14692 
L 174.185375 63.457324 
L 188.062619 65.295163 
L 229.694352 70.97987 
L 240.597901 72.157708 
L 250.510218 73.012273 
L 259.926919 73.600936 
L 268.848005 73.938247 
L 277.76909 74.049922 
L 286.690176 73.932345 
L 295.611262 73.589323 
L 305.027963 72.995043 
L 314.94028 72.13524 
L 325.843829 70.952684 
L 338.729842 69.312131 
L 358.554476 66.522323 
L 378.379111 63.803213 
L 390.769507 62.333381 
L 401.177441 61.318632 
L 410.594142 60.613877 
L 419.515227 60.157319 
L 428.436313 59.921312 
L 437.357399 59.913497 
L 446.278484 60.134127 
L 455.19957 60.576059 
L 464.616271 61.266714 
L 474.528588 62.215309 
L 485.927753 63.538235 
L 499.804997 65.385507 
L 539.454267 70.821295 
L 539.454267 70.821295 
" style="fill:none;stroke:#1f77b4;stroke-linecap:square;stroke-width:1.5;"/>
   </g>
   <g id="line2d_2">
    <path clip-path="url(#p7a34b90189)" d="M 44.334019 87.735749 
L 62.671806 84.561028 
L 72.584123 83.066008 
L 81.009593 82.003158 
L 88.939446 81.219772 
L 96.373684 80.702842 
L 103.807922 80.413618 
L 110.746544 80.357489 
L 117.685166 80.509531 
L 125.119404 80.898446 
L 132.553642 81.508733 
L 140.483496 82.38132 
L 149.404582 83.596771 
L 159.812515 85.253901 
L 175.672223 88.042757 
L 192.523162 90.947449 
L 202.435479 92.437187 
L 210.860949 93.494101 
L 218.790803 94.270916 
L 226.225041 94.78104 
L 233.659279 95.063057 
L 240.597901 95.112303 
L 247.536523 94.953427 
L 254.970761 94.557461 
L 262.404999 93.940628 
L 270.334852 93.061854 
L 279.255938 91.840699 
L 289.663871 90.178931 
L 306.019195 87.299198 
L 322.374518 84.487168 
L 332.286835 83.002758 
L 340.712305 81.951813 
L 348.642159 81.181592 
L 356.076397 80.67829 
L 363.510635 80.403489 
L 370.449257 80.361127 
L 377.883495 80.546543 
L 385.317733 80.964725 
L 392.751971 81.602134 
L 400.681825 82.500296 
L 409.60291 83.739243 
L 420.010843 85.415339 
L 437.357399 88.478393 
L 452.72149 91.100303 
L 462.633808 92.567561 
L 471.059277 93.599416 
L 478.989131 94.348628 
L 486.423369 94.830253 
L 493.857607 95.082178 
L 500.796229 95.10276 
L 508.230467 94.894263 
L 515.664705 94.453994 
L 523.098943 93.796207 
L 531.028797 92.878933 
L 539.454267 91.697707 
L 539.454267 91.697707 
" style="fill:none;stroke:#1f77b4;stroke-linecap:square;stroke-width:1.5;"/>
   </g>
   <g id="line2d_3">
    <path clip-path="url(#p7a34b90189)" d="M 44.334019 108.502248 
L 58.706879 104.386551 
L 66.636732 102.363188 
L 73.079739 100.941323 
L 79.027129 99.850016 
L 84.478904 99.063466 
L 89.930678 98.50077 
L 95.382453 98.175275 
L 100.338611 98.091811 
L 105.29477 98.212466 
L 110.746544 98.578002 
L 116.198319 99.178906 
L 121.650093 100.000927 
L 127.597484 101.126821 
L 134.04049 102.580222 
L 141.474728 104.49738 
L 151.387045 107.31208 
L 170.716064 112.861148 
L 178.150302 114.738105 
L 184.593308 116.145408 
L 190.540698 117.220846 
L 195.992473 117.991192 
L 201.444247 118.536494 
L 206.896022 118.843818 
L 211.852181 118.910451 
L 216.808339 118.773009 
L 222.260114 118.38945 
L 227.711888 117.771402 
L 233.163663 116.933522 
L 239.111053 115.792234 
L 245.554059 114.324889 
L 252.988297 112.395753 
L 262.900615 109.572769 
L 281.734017 104.166559 
L 289.168255 102.286866 
L 295.611262 100.876456 
L 301.558652 99.797638 
L 307.010426 99.023844 
L 312.462201 98.474845 
L 317.913975 98.163661 
L 322.870134 98.093455 
L 327.826293 98.227336 
L 333.278067 98.607073 
L 338.729842 99.22149 
L 344.181616 100.056013 
L 350.129007 101.194047 
L 356.572013 102.658449 
L 364.006251 104.585065 
L 373.918568 107.406322 
L 392.751971 112.814701 
L 400.186209 114.697119 
L 406.629215 116.110626 
L 412.576605 117.192818 
L 418.02838 117.970055 
L 423.480154 118.522749 
L 428.931929 118.837791 
L 433.888088 118.911569 
L 438.844246 118.781251 
L 444.296021 118.405336 
L 449.747795 117.794555 
L 455.19957 116.963393 
L 461.14696 115.828621 
L 467.589966 114.367171 
L 475.024204 112.443087 
L 484.936522 109.623574 
L 503.769924 104.213059 
L 511.204162 102.327926 
L 517.647169 100.91133 
L 523.594559 99.825771 
L 529.046333 99.045096 
L 534.498108 98.488711 
L 539.454267 98.188749 
L 539.454267 98.188749 
" style="fill:none;stroke:#1f77b4;stroke-linecap:square;stroke-width:1.5;"/>
   </g>
   <g id="line2d_4">
    <path clip-path="url(#p7a34b90189)" d="M 44.334019 129.268748 
L 56.228799 124.55643 
L 62.671806 122.250152 
L 68.12358 120.531833 
L 73.079739 119.203191 
L 77.540281 118.226861 
L 82.000824 117.479558 
L 86.461367 116.97678 
L 90.426294 116.743697 
L 94.391221 116.715955 
L 98.356148 116.894007 
L 102.321075 117.274935 
L 106.781617 117.938078 
L 111.24216 118.836237 
L 115.702703 119.950782 
L 120.658862 121.414697 
L 126.110636 123.255598 
L 132.553642 125.666379 
L 142.961575 129.841516 
L 153.369509 133.952469 
L 159.812515 136.261747 
L 165.264289 137.983475 
L 170.220448 139.315815 
L 174.680991 140.295881 
L 179.141534 141.047227 
L 183.602076 141.554268 
L 187.567003 141.791257 
L 191.53193 141.822946 
L 195.496857 141.648818 
L 199.461784 141.271726 
L 203.922327 140.612717 
L 208.38287 139.718416 
L 212.843412 138.607373 
L 217.799571 137.146843 
L 223.251345 135.308952 
L 229.694352 132.900644 
L 240.102285 128.726782 
L 250.510218 124.613652 
L 256.953224 122.301387 
L 262.404999 120.576261 
L 267.361157 119.24023 
L 271.8217 118.256434 
L 276.282243 117.501051 
L 280.742786 116.989749 
L 284.707713 116.748856 
L 288.672639 116.71322 
L 292.637566 116.883423 
L 296.602493 117.256676 
L 301.063036 117.911547 
L 305.523579 118.801985 
L 309.984122 119.90952 
L 314.94028 121.366655 
L 320.392055 123.201524 
L 326.835061 125.607346 
L 336.747378 129.578752 
L 347.650927 133.895191 
L 354.093933 136.210428 
L 359.545708 137.938943 
L 364.501867 139.278655 
L 368.962409 140.266175 
L 373.422952 141.025591 
L 377.883495 141.541152 
L 381.848422 141.785947 
L 385.813349 141.82553 
L 389.778276 141.659253 
L 393.743203 141.289842 
L 398.203745 140.639112 
L 402.664288 139.752542 
L 407.124831 138.648523 
L 412.08099 137.194791 
L 417.532764 135.362954 
L 423.97577 132.959633 
L 433.888088 128.989567 
L 444.791637 124.670985 
L 451.234643 122.352789 
L 456.686417 120.620898 
L 461.642576 119.277511 
L 466.103119 118.286272 
L 470.563661 117.522828 
L 475.024204 117.003013 
L 478.989131 116.754317 
L 482.954058 116.710787 
L 486.918985 116.873137 
L 490.883912 117.238705 
L 495.344455 117.885289 
L 499.804997 118.767985 
L 504.26554 119.868483 
L 509.221699 121.318803 
L 514.673473 123.147596 
L 521.11648 125.548401 
L 531.028797 129.517103 
L 539.454267 132.886704 
L 539.454267 132.886704 
" style="fill:none;stroke:#1f77b4;stroke-linecap:square;stroke-width:1.5;"/>
   </g>
   <g id="line2d_5">
    <path clip-path="url(#p7a34b90189)" d="M 44.334019 150.035247 
L 54.741952 145.004052 
L 60.193726 142.610537 
L 65.149885 140.684621 
L 69.610428 139.208562 
L 73.575355 138.133956 
L 77.540281 137.306202 
L 81.009593 136.798042 
L 84.478904 136.500179 
L 87.948215 136.417343 
L 91.417526 136.550851 
L 94.886837 136.898582 
L 98.356148 137.455012 
L 102.321075 138.334994 
L 106.286002 139.457658 
L 110.250928 140.799718 
L 114.711471 142.536963 
L 120.163246 144.922431 
L 127.101868 148.234824 
L 142.46596 155.6629 
L 147.917734 157.994782 
L 152.378277 159.674633 
L 156.343204 160.956727 
L 160.308131 162.012292 
L 164.273058 162.819434 
L 167.742369 163.308604 
L 171.21168 163.586905 
L 174.680991 163.649913 
L 178.150302 163.49663 
L 181.619613 163.129489 
L 185.088924 162.554323 
L 189.053851 161.654135 
L 193.018778 160.512953 
L 197.479321 158.97071 
L 201.939863 157.19401 
L 207.391638 154.772504 
L 214.825876 151.191327 
L 227.711888 144.939534 
L 233.163663 142.55237 
L 238.119821 140.634212 
L 242.580364 139.166539 
L 246.545291 138.100321 
L 250.510218 137.281652 
L 253.979529 136.781866 
L 257.44884 136.492633 
L 260.918151 136.418548 
L 264.387462 136.560788 
L 267.856773 136.917093 
L 271.326084 137.481802 
L 275.291011 138.370718 
L 279.255938 139.501575 
L 283.220865 140.850917 
L 287.681408 142.595079 
L 293.133182 144.986914 
L 300.071804 148.303737 
L 314.94028 155.502259 
L 320.392055 157.851393 
L 324.852598 159.549573 
L 329.31314 160.998107 
L 333.278067 162.045222 
L 337.242994 162.843231 
L 340.712305 163.323998 
L 344.181616 163.593651 
L 347.650927 163.647905 
L 351.120238 163.485898 
L 354.589549 163.110205 
L 358.05886 162.526794 
L 362.023787 161.617724 
L 365.988714 160.468416 
L 370.449257 158.918144 
L 374.9098 157.134793 
L 380.361574 154.707283 
L 387.795812 151.122064 
L 400.681825 144.875149 
L 406.133599 142.494398 
L 410.594142 140.762262 
L 415.054685 139.27344 
L 419.019612 138.186048 
L 422.984539 137.344427 
L 426.45385 136.823474 
L 429.923161 136.512413 
L 433.392472 136.416185 
L 436.861783 136.53632 
L 440.331094 136.870908 
L 443.800405 137.414634 
L 447.765332 138.280895 
L 451.730259 139.39096 
L 455.695186 140.721804 
L 460.155728 142.448374 
L 465.111887 144.598113 
L 471.554893 147.644801 
L 488.901448 156.010655 
L 493.857607 158.107156 
L 498.31815 159.772325 
L 502.283077 161.039202 
L 506.248004 162.077839 
L 510.212931 162.866695 
L 513.682242 163.339046 
L 517.151553 163.600044 
L 520.620864 163.645542 
L 524.090175 163.474817 
L 527.559486 163.090581 
L 531.028797 162.498939 
L 534.993724 161.581012 
L 538.958651 160.423607 
L 539.454267 160.263238 
L 539.454267 160.263238 
" style="fill:none;stroke:#1f77b4;stroke-linecap:square;stroke-width:1.5;"/>
   </g>
   <g id="line2d_6">
    <path clip-path="url(#p7a34b90189)" d="M 44.334019 170.801747 
L 55.733183 167.668794 
L 61.680574 166.25593 
L 67.132348 165.188448 
L 72.088507 164.452174 
L 76.54905 164.005758 
L 81.009593 163.779377 
L 85.470135 163.780361 
L 89.930678 164.008677 
L 94.391221 164.456933 
L 99.347379 165.19507 
L 104.303538 166.157173 
L 110.250928 167.552679 
L 117.685166 169.54901 
L 135.031722 174.317651 
L 140.979112 175.670767 
L 145.935271 176.587572 
L 150.891429 177.273253 
L 155.351972 177.669908 
L 159.812515 177.844192 
L 164.273058 177.790461 
L 168.7336 177.510456 
L 173.194143 177.013241 
L 178.150302 176.225834 
L 183.602076 175.110905 
L 189.549467 173.659384 
L 197.974936 171.34395 
L 211.356565 167.649223 
L 217.303955 166.23924 
L 222.75573 165.175246 
L 227.711888 164.442701 
L 232.172431 163.99997 
L 236.632974 163.777461 
L 241.093517 163.782378 
L 245.554059 164.014563 
L 250.014602 164.466497 
L 254.970761 165.208353 
L 259.926919 166.173645 
L 265.87431 167.572098 
L 273.308548 169.570532 
L 290.655103 174.336585 
L 296.602493 175.686556 
L 301.558652 176.600038 
L 306.514811 177.281898 
L 310.975353 177.674815 
L 315.435896 177.845201 
L 319.896439 177.78754 
L 324.356982 177.503699 
L 328.817524 177.002868 
L 333.773683 176.21184 
L 339.225458 175.09358 
L 345.172848 173.639383 
L 353.598318 171.322149 
L 366.979946 167.629682 
L 372.927336 166.222594 
L 378.379111 165.162098 
L 383.335269 164.433289 
L 387.795812 163.994247 
L 392.256355 163.775612 
L 396.716898 163.784463 
L 401.177441 164.020515 
L 405.637983 164.476123 
L 410.594142 165.22169 
L 415.550301 166.19016 
L 421.497691 167.591548 
L 428.931929 169.592065 
L 446.278484 174.355485 
L 452.225875 175.702298 
L 457.182033 176.612448 
L 462.138192 177.290481 
L 466.598735 177.679655 
L 471.059277 177.846142 
L 475.51982 177.784552 
L 479.980363 177.496878 
L 484.440906 176.992434 
L 489.397064 176.197794 
L 494.848839 175.076214 
L 500.796229 173.619355 
L 509.221699 171.300343 
L 522.603327 167.610172 
L 528.550718 166.205991 
L 534.002492 165.149004 
L 538.958651 164.423939 
L 539.454267 164.365052 
L 539.454267 164.365052 
" style="fill:none;stroke:#1f77b4;stroke-linecap:square;stroke-width:1.5;"/>
   </g>
   <g id="line2d_7">
    <path clip-path="url(#p7a34b90189)" d="M 44.334019 191.568246 
L 52.759488 186.586839 
L 57.220031 184.187938 
L 61.184958 182.295489 
L 64.654269 180.873287 
L 68.12358 179.704731 
L 71.097275 178.926178 
L 74.07097 178.368022 
L 77.044666 178.039991 
L 80.018361 177.947806 
L 82.992056 178.093073 
L 85.965751 178.473259 
L 88.939446 179.081737 
L 91.913142 179.907899 
L 95.382453 181.127468 
L 98.851764 182.594655 
L 102.816691 184.529772 
L 107.277233 186.963972 
L 113.72024 190.771688 
L 123.632557 196.645316 
L 128.0931 199.034861 
L 132.058026 200.916142 
L 135.527338 202.326651 
L 138.996649 203.482009 
L 141.970344 204.248287 
L 144.944039 204.793508 
L 147.917734 205.108166 
L 150.891429 205.186776 
L 153.865124 205.027967 
L 156.83882 204.634507 
L 159.812515 204.013257 
L 162.78621 203.175047 
L 166.255521 201.942615 
L 169.724832 200.464139 
L 173.689759 198.518392 
L 178.150302 196.075515 
L 184.593308 192.262025 
L 194.505625 186.395806 
L 198.966168 184.015753 
L 202.931095 182.145747 
L 206.400406 180.747012 
L 209.869717 179.604918 
L 212.843412 178.850957 
L 215.817107 178.318703 
L 218.790803 178.017435 
L 221.764498 177.952406 
L 224.738193 178.124748 
L 227.711888 178.531458 
L 230.685583 179.165445 
L 233.659279 180.015656 
L 237.12859 181.260881 
L 240.597901 182.75056 
L 244.562828 184.706826 
L 249.02337 187.158242 
L 255.466377 190.977287 
L 264.883078 196.557862 
L 269.343621 198.955967 
L 273.308548 200.847462 
L 276.777859 202.268666 
L 280.24717 203.436094 
L 283.220865 204.213597 
L 286.19456 204.770646 
L 289.168255 205.097531 
L 292.14195 205.188554 
L 295.115646 205.042126 
L 298.089341 204.660802 
L 301.063036 204.051228 
L 304.036731 203.224032 
L 307.506042 202.003358 
L 310.975353 200.5352 
L 314.94028 198.599168 
L 319.400823 196.164219 
L 325.843829 192.356 
L 335.756147 186.482994 
L 340.216689 184.094257 
L 344.181616 182.213938 
L 347.650927 180.804434 
L 351.120238 179.650211 
L 354.093933 178.884986 
L 357.067629 178.340875 
L 360.041324 178.027363 
L 363.015019 177.949917 
L 365.988714 178.109886 
L 368.962409 178.504482 
L 371.936105 179.126825 
L 374.9098 179.966065 
L 378.379111 181.199596 
L 381.848422 182.679035 
L 385.813349 184.625687 
L 390.273892 187.069302 
L 396.716898 190.883276 
L 406.629215 196.748845 
L 411.089758 199.128078 
L 415.054685 200.997113 
L 418.523996 202.394836 
L 421.993307 203.53579 
L 424.967002 204.288694 
L 427.940697 204.819835 
L 430.914392 205.119955 
L 433.888088 205.183821 
L 436.861783 205.010319 
L 439.835478 204.602475 
L 442.809173 203.967398 
L 445.782868 203.116161 
L 449.252179 201.869844 
L 452.72149 200.379209 
L 456.686417 198.422046 
L 461.14696 195.969905 
L 467.589966 192.150395 
L 477.006668 186.570425 
L 481.46721 184.173118 
L 485.432137 182.282576 
L 488.901448 180.862371 
L 492.370759 179.696072 
L 495.344455 178.91962 
L 498.31815 178.363678 
L 501.291845 178.037938 
L 504.26554 177.948078 
L 507.239235 178.095666 
L 510.212931 178.478129 
L 513.186626 179.088798 
L 516.160321 179.917028 
L 519.629632 181.138806 
L 523.098943 182.607934 
L 527.06387 184.54488 
L 531.524413 186.980577 
L 537.967419 190.789298 
L 539.454267 191.688818 
L 539.454267 191.688818 
" style="fill:none;stroke:#1f77b4;stroke-linecap:square;stroke-width:1.5;"/>
   </g>
   <g id="line2d_8">
    <path clip-path="url(#p7a34b90189)" d="M 44.334019 212.334746 
L 52.263872 207.771376 
L 56.724415 205.457377 
L 60.689342 203.666314 
L 64.158653 202.359007 
L 67.132348 201.461284 
L 70.106044 200.789095 
L 73.079739 200.35638 
L 76.053434 200.172116 
L 79.027129 200.240124 
L 82.000824 200.558994 
L 84.974519 201.122111 
L 87.948215 201.917796 
L 90.92191 202.929545 
L 94.391221 204.354774 
L 98.356148 206.256651 
L 102.816691 208.659972 
L 109.755313 212.694645 
L 117.189551 216.960708 
L 121.650093 219.267774 
L 125.61502 221.050486 
L 129.084331 222.349045 
L 132.058026 223.238393 
L 135.031722 223.901582 
L 138.005417 224.324856 
L 140.979112 224.499436 
L 143.952807 224.421702 
L 146.926502 224.093265 
L 149.900198 223.520937 
L 152.873893 222.716591 
L 155.847588 221.696908 
L 159.316899 220.263562 
L 163.281826 218.354188 
L 167.742369 215.945025 
L 175.176607 211.615263 
L 182.115229 207.646336 
L 186.575772 205.346273 
L 190.045083 203.777343 
L 193.514394 202.449851 
L 196.488089 201.532764 
L 199.461784 200.839727 
L 202.435479 200.385114 
L 205.409174 200.178356 
L 208.38287 200.223741 
L 211.356565 200.520327 
L 214.33026 201.061963 
L 217.303955 201.837415 
L 220.27765 202.830597 
L 223.746961 204.236784 
L 227.711888 206.121002 
L 232.172431 208.510452 
L 239.111053 212.537521 
L 247.040907 217.085461 
L 251.50145 219.378448 
L 254.970761 220.940076 
L 258.440072 222.258914 
L 261.413767 223.167692 
L 264.387462 223.851777 
L 267.361157 224.29698 
L 270.334852 224.494068 
L 273.308548 224.438952 
L 276.282243 224.132776 
L 279.255938 223.58189 
L 282.229633 222.797721 
L 285.203328 221.796533 
L 288.672639 220.382127 
L 292.637566 218.490276 
L 297.098109 216.094812 
L 304.036731 212.06439 
L 311.470969 207.791758 
L 315.931512 205.475521 
L 319.896439 203.681754 
L 323.36575 202.371611 
L 326.339445 201.471171 
L 329.31314 200.796059 
L 332.286835 200.360278 
L 335.260531 200.172867 
L 338.234226 200.237712 
L 341.207921 200.553468 
L 344.181616 201.113587 
L 347.155311 201.906451 
L 350.129007 202.915614 
L 353.598318 204.338194 
L 357.563245 206.23762 
L 362.023787 208.639025 
L 368.962409 212.672676 
L 376.396647 216.940372 
L 380.85719 219.249699 
L 384.822117 221.035133 
L 388.291428 222.336541 
L 391.265123 223.228615 
L 394.238818 223.894733 
L 397.212514 224.321078 
L 400.186209 224.498808 
L 403.159904 224.424235 
L 406.133599 224.098908 
L 409.107294 223.529573 
L 412.08099 222.72804 
L 415.054685 221.710934 
L 418.523996 220.280222 
L 422.488923 218.373279 
L 426.949465 215.966008 
L 433.888088 211.929253 
L 441.322325 207.666625 
L 445.782868 205.364278 
L 449.252179 203.792984 
L 452.72149 202.462687 
L 455.695186 201.542903 
L 458.668881 200.84696 
L 461.642576 200.389291 
L 464.616271 200.179391 
L 467.589966 200.221611 
L 470.563661 200.515077 
L 473.537357 201.053702 
L 476.511052 201.826313 
L 479.484747 202.816886 
L 482.954058 204.220391 
L 486.918985 206.102114 
L 491.379528 208.489593 
L 497.822534 212.223196 
L 506.248004 217.065218 
L 510.708546 219.360514 
L 514.177857 220.924522 
L 517.647169 222.246178 
L 520.620864 223.157661 
L 523.594559 223.844659 
L 526.568254 224.292923 
L 529.541949 224.493156 
L 532.515644 224.441204 
L 535.48934 224.138145 
L 538.463035 223.590265 
L 539.454267 223.355055 
L 539.454267 223.355055 
" style="fill:none;stroke:#1f77b4;stroke-linecap:square;stroke-width:1.5;"/>
   </g>
   <g id="line2d_9">
    <path clip-path="url(#p7a34b90189)" d="M 44.334019 233.101246 
L 51.768257 228.108468 
L 55.733183 225.708365 
L 59.202495 223.866998 
L 62.17619 222.529902 
L 65.149885 221.450061 
L 67.627964 220.765871 
L 70.106044 220.290272 
L 72.584123 220.031306 
L 75.062202 219.993353 
L 77.540281 220.177053 
L 80.018361 220.579301 
L 82.49644 221.193295 
L 84.974519 222.008652 
L 87.948215 223.23324 
L 90.92191 224.697968 
L 94.391221 226.66249 
L 98.356148 229.16448 
L 104.799154 233.541763 
L 111.737776 238.185561 
L 115.702703 240.575817 
L 119.172014 242.405655 
L 122.145709 243.731004 
L 125.119404 244.797676 
L 127.597484 245.470036 
L 130.075563 245.933241 
L 132.553642 246.179457 
L 135.031722 246.204521 
L 137.509801 246.008008 
L 139.98788 245.593243 
L 142.46596 244.967239 
L 144.944039 244.140581 
L 147.917734 242.903636 
L 150.891429 241.428148 
L 154.36074 239.453438 
L 158.821283 236.615573 
L 166.751137 231.202361 
L 172.202911 227.613702 
L 176.167838 225.268852 
L 179.637149 223.491507 
L 182.610845 222.21927 
L 185.58454 221.211848 
L 188.062619 220.592515 
L 190.540698 220.184704 
L 193.018778 219.995312 
L 195.496857 220.02754 
L 197.974936 220.280844 
L 200.453016 220.750941 
L 202.931095 221.429881 
L 205.90479 222.50388 
L 208.878485 223.835767 
L 212.347796 225.672026 
L 216.312723 228.067772 
L 221.268882 231.355108 
L 232.172431 238.678683 
L 236.137358 241.01295 
L 239.606669 242.778206 
L 242.580364 244.038292 
L 245.554059 245.032222 
L 248.032139 245.639525 
L 250.510218 246.034806 
L 252.988297 246.211381 
L 255.466377 246.166264 
L 257.944456 245.900218 
L 260.422535 245.417742 
L 262.900615 244.726994 
L 265.87431 243.639861 
L 268.848005 242.296269 
L 272.317316 240.448539 
L 276.282243 238.043022 
L 281.238401 234.749076 
L 291.646335 227.744079 
L 295.611262 225.384181 
L 299.080573 223.589555 
L 302.054268 222.299898 
L 305.027963 221.273095 
L 307.506042 220.63645 
L 309.984122 220.210585 
L 312.462201 220.002701 
L 314.94028 220.016312 
L 317.41836 220.251189 
L 319.896439 220.703361 
L 322.374518 221.36518 
L 325.348213 222.420101 
L 328.321909 223.734951 
L 331.295604 225.277732 
L 334.764915 227.315368 
L 339.225458 230.206375 
L 353.598318 239.759559 
L 357.067629 241.697533 
L 360.041324 243.134382 
L 363.015019 244.327072 
L 365.493098 245.113336 
L 367.971178 245.696475 
L 370.449257 246.066629 
L 372.927336 246.217539 
L 375.405416 246.146653 
L 377.883495 245.85517 
L 380.361574 245.348018 
L 382.839654 244.633773 
L 385.813349 243.520558 
L 388.787044 242.153787 
L 392.256355 240.283433 
L 396.221282 237.858787 
L 401.673056 234.212366 
L 411.089758 227.875094 
L 415.054685 225.500429 
L 418.523996 223.688736 
L 421.497691 222.381813 
L 424.471386 221.33575 
L 426.949465 220.68187 
L 429.427545 220.238001 
L 431.905624 220.01165 
L 434.383703 220.006643 
L 436.861783 220.223065 
L 439.339862 220.657257 
L 441.817941 221.301876 
L 444.791637 222.337595 
L 447.765332 223.635251 
L 450.739027 225.163263 
L 454.208338 227.187212 
L 458.668881 230.066901 
L 473.537357 239.929642 
L 477.006668 241.846336 
L 479.980363 243.260995 
L 482.954058 244.428414 
L 485.432137 245.191705 
L 487.910217 245.750547 
L 490.388296 246.09549 
L 492.866375 246.220701 
L 495.344455 246.124062 
L 497.822534 245.807208 
L 500.300613 245.275496 
L 502.778693 244.537919 
L 505.752388 243.398876 
L 508.726083 242.009238 
L 512.195394 240.116687 
L 516.160321 237.673465 
L 521.612095 234.014678 
L 530.533181 228.006731 
L 534.498108 225.617583 
L 537.967419 223.789038 
L 539.454267 223.096542 
L 539.454267 223.096542 
" style="fill:none;stroke:#1f77b4;stroke-linecap:square;stroke-width:1.5;"/>
   </g>
   <g id="line2d_10">
    <path clip-path="url(#p7a34b90189)" d="M 44.334019 253.867745 
L 51.768257 250.065257 
L 55.733183 248.269309 
L 59.202495 246.92503 
L 62.17619 245.983126 
L 65.149885 245.263679 
L 68.12358 244.786986 
L 71.097275 244.566498 
L 74.07097 244.608434 
L 77.044666 244.911612 
L 80.018361 245.467478 
L 82.992056 246.260348 
L 85.965751 247.267853 
L 89.435062 248.676327 
L 93.399989 250.526402 
L 99.347379 253.583807 
L 107.277233 257.649354 
L 111.24216 259.447894 
L 114.711471 260.795197 
L 117.685166 261.740164 
L 120.658862 262.463019 
L 123.632557 262.943367 
L 126.606252 263.167656 
L 129.579947 263.129558 
L 132.553642 262.830148 
L 135.527338 262.277873 
L 138.501033 261.488315 
L 141.474728 260.483751 
L 144.944039 259.078128 
L 148.908966 257.230416 
L 154.856356 254.17453 
L 162.78621 250.107038 
L 166.751137 248.305918 
L 170.220448 246.955599 
L 173.194143 246.007574 
L 176.167838 245.281316 
L 179.141534 244.797315 
L 182.115229 244.569227 
L 185.088924 244.603486 
L 188.062619 244.899127 
L 191.036314 245.447808 
L 194.010009 246.234049 
L 196.983705 247.235666 
L 200.453016 248.638429 
L 204.417943 250.483767 
L 210.365333 253.538115 
L 218.295187 257.607528 
L 222.260114 259.411218 
L 225.729425 260.764545 
L 228.70312 261.715621 
L 231.676815 262.445278 
L 234.65051 262.932929 
L 237.624205 263.164815 
L 240.597901 263.134394 
L 243.571596 262.842524 
L 246.545291 262.297441 
L 249.518986 261.514522 
L 252.492681 260.515858 
L 255.961992 259.115964 
L 259.926919 257.27301 
L 265.87431 254.220218 
L 273.804164 250.14891 
L 277.76909 248.342661 
L 281.238401 246.986334 
L 284.212097 246.032212 
L 287.185792 245.29916 
L 290.159487 244.807863 
L 293.133182 244.57218 
L 296.106877 244.598762 
L 299.080573 244.886859 
L 302.054268 245.428341 
L 305.027963 246.207933 
L 308.001658 247.203638 
L 311.470969 248.600656 
L 315.435896 250.441214 
L 321.383286 253.492432 
L 329.31314 257.565611 
L 333.278067 259.374408 
L 336.747378 260.733726 
L 339.721073 261.690889 
L 342.694769 262.427331 
L 345.668464 262.922272 
L 348.642159 263.16175 
L 351.615854 263.139007 
L 354.589549 262.854685 
L 357.563245 262.316806 
L 360.53694 261.540546 
L 363.510635 260.547806 
L 366.979946 259.153673 
L 370.944873 257.315522 
L 376.892263 254.265897 
L 385.317733 249.952419 
L 389.28266 248.170713 
L 392.751971 246.842976 
L 395.725666 245.917785 
L 398.699361 245.216894 
L 401.673056 244.760077 
L 404.646752 244.560223 
L 407.620447 244.622972 
L 410.594142 244.946552 
L 413.567837 245.521834 
L 416.541532 246.332587 
L 419.515227 247.355937 
L 422.984539 248.779727 
L 426.949465 250.642421 
L 432.896856 253.707745 
L 440.82671 257.762318 
L 444.791637 259.546674 
L 448.260948 260.877478 
L 451.234643 261.805763 
L 454.208338 262.510085 
L 457.182033 262.970573 
L 460.155728 263.174234 
L 463.129424 263.115322 
L 466.103119 262.7955 
L 469.076814 262.22379 
L 472.050509 261.416323 
L 475.024204 260.395881 
L 478.493515 258.974896 
L 482.458442 257.114504 
L 488.405833 254.050599 
L 496.335686 249.993949 
L 500.300613 248.206954 
L 503.769924 246.87309 
L 506.74362 245.941717 
L 509.717315 245.233968 
L 512.69101 244.769812 
L 515.664705 244.562345 
L 518.6384 244.61742 
L 521.612095 244.933483 
L 524.585791 245.501617 
L 527.559486 246.305792 
L 530.533181 247.32332 
L 534.002492 248.741492 
L 537.967419 250.59957 
L 539.454267 251.343844 
L 539.454267 251.343844 
" style="fill:none;stroke:#1f77b4;stroke-linecap:square;stroke-width:1.5;"/>
   </g>
   <g id="line2d_11">
    <path clip-path="url(#p7a34b90189)" d="M 539.454267 71.110794 
L 550.368741 72.40731 
L 560.29099 73.358992 
L 569.221015 73.997712 
L 578.151039 74.408415 
L 586.584951 74.57483 
L 595.018863 74.521094 
L 603.452776 74.248764 
L 612.3828 73.731015 
L 621.312825 72.993902 
L 631.235074 71.946912 
L 642.149548 70.566967 
L 656.040698 68.568587 
L 694.241358 62.926176 
L 705.155832 61.61355 
L 715.078082 60.64374 
L 724.008106 59.986483 
L 732.938131 59.55576 
L 741.372043 59.369662 
L 749.805955 59.40354 
L 758.239867 59.656414 
L 767.169892 60.154626 
L 776.099916 60.873917 
L 786.022166 61.903815 
L 787.01439 62.018713 
L 787.01439 62.018713 
" style="fill:none;stroke:#2ca02c;stroke-linecap:square;stroke-width:1.5;"/>
   </g>
   <g id="line2d_12">
    <path clip-path="url(#p7a34b90189)" d="M 539.454267 115.03529 
L 544.911504 115.763171 
L 549.872628 116.213341 
L 554.833753 116.448954 
L 559.794878 116.463454 
L 564.756003 116.256438 
L 569.717127 115.833666 
L 575.174365 115.13363 
L 580.631602 114.21044 
L 586.584951 112.9855 
L 594.026639 111.208439 
L 604.941113 108.330487 
L 617.343925 105.109368 
L 624.289499 103.527752 
L 630.242849 102.384635 
L 635.700086 101.550936 
L 641.157323 100.951157 
L 646.118448 100.626037 
L 651.079573 100.520068 
L 656.040698 100.636199 
L 661.001822 100.971199 
L 665.962947 101.515746 
L 671.420184 102.338527 
L 677.373534 103.471516 
L 683.822996 104.924525 
L 692.256908 107.066428 
L 713.093632 112.472214 
L 719.543094 113.870663 
L 725.496444 114.939145 
L 730.953681 115.693119 
L 735.914806 116.16908 
L 740.875931 116.431716 
L 745.837055 116.473718 
L 750.79818 116.293919 
L 755.759305 115.897321 
L 761.216542 115.224003 
L 766.673779 114.324491 
L 772.627129 113.12098 
L 779.572703 111.487042 
L 787.01439 109.558712 
L 787.01439 109.558712 
" style="fill:none;stroke:#2ca02c;stroke-linecap:square;stroke-width:1.5;"/>
   </g>
   <g id="line2d_13">
    <path clip-path="url(#p7a34b90189)" d="M 539.454267 162.95988 
L 542.430941 163.253402 
L 545.407616 163.287234 
L 548.384291 163.060713 
L 551.360966 162.578289 
L 554.337641 161.849439 
L 557.314316 160.888483 
L 560.29099 159.7143 
L 563.763778 158.105913 
L 567.732677 156.006427 
L 572.693802 153.098478 
L 589.065514 143.228644 
L 593.034414 141.229137 
L 596.507201 139.729417 
L 599.483876 138.661832 
L 602.460551 137.817694 
L 605.437225 137.213586 
L 608.4139 136.861378 
L 611.390575 136.767988 
L 614.36725 136.935253 
L 617.343925 137.359885 
L 620.3206 138.033542 
L 623.297274 138.942989 
L 626.273949 140.070359 
L 629.746737 141.631287 
L 633.715636 143.687503 
L 638.180649 146.261527 
L 645.622336 150.861949 
L 652.56791 155.076142 
L 657.032923 157.528884 
L 660.50571 159.213089 
L 663.978497 160.652016 
L 666.955172 161.66081 
L 669.931847 162.441205 
L 672.908522 162.977866 
L 675.885197 163.260253 
L 678.861871 163.282815 
L 681.838546 163.045111 
L 684.815221 162.55181 
L 687.791896 161.812604 
L 690.768571 160.842015 
L 694.241358 159.442895 
L 697.714145 157.792355 
L 701.683045 155.655012 
L 706.64417 152.717092 
L 721.527544 143.69778 
L 725.496444 141.640344 
L 728.969231 140.078089 
L 731.945906 138.949415 
L 734.922581 138.038537 
L 737.899256 137.363352 
L 740.875931 136.937124 
L 743.852605 136.768226 
L 746.82928 136.859978 
L 749.805955 137.210576 
L 752.78263 137.813132 
L 755.759305 138.655809 
L 758.73598 139.722051 
L 762.208767 141.220388 
L 765.681554 142.954303 
L 770.146566 145.4546 
L 776.099916 149.082212 
L 786.022166 155.150434 
L 787.01439 155.717184 
L 787.01439 155.717184 
" style="fill:none;stroke:#2ca02c;stroke-linecap:square;stroke-width:1.5;"/>
   </g>
   <g id="text_1">
    <!-- Input Sequence (8 days) -->
    <g style="fill:#1f77b4;" transform="translate(144.860393 25.43625)scale(0.24 -0.24)">
     <defs>
      <path d="M 628 4666 
L 1259 4666 
L 1259 0 
L 628 0 
L 628 4666 
z
" id="DejaVuSans-49" transform="scale(0.015625)"/>
      <path d="M 3513 2113 
L 3513 0 
L 2938 0 
L 2938 2094 
Q 2938 2591 2744 2837 
Q 2550 3084 2163 3084 
Q 1697 3084 1428 2787 
Q 1159 2491 1159 1978 
L 1159 0 
L 581 0 
L 581 3500 
L 1159 3500 
L 1159 2956 
Q 1366 3272 1645 3428 
Q 1925 3584 2291 3584 
Q 2894 3584 3203 3211 
Q 3513 2838 3513 2113 
z
" id="DejaVuSans-6e" transform="scale(0.015625)"/>
      <path d="M 1159 525 
L 1159 -1331 
L 581 -1331 
L 581 3500 
L 1159 3500 
L 1159 2969 
Q 1341 3281 1617 3432 
Q 1894 3584 2278 3584 
Q 2916 3584 3314 3078 
Q 3713 2572 3713 1747 
Q 3713 922 3314 415 
Q 2916 -91 2278 -91 
Q 1894 -91 1617 61 
Q 1341 213 1159 525 
z
M 3116 1747 
Q 3116 2381 2855 2742 
Q 2594 3103 2138 3103 
Q 1681 3103 1420 2742 
Q 1159 2381 1159 1747 
Q 1159 1113 1420 752 
Q 1681 391 2138 391 
Q 2594 391 2855 752 
Q 3116 1113 3116 1747 
z
" id="DejaVuSans-70" transform="scale(0.015625)"/>
      <path d="M 544 1381 
L 544 3500 
L 1119 3500 
L 1119 1403 
Q 1119 906 1312 657 
Q 1506 409 1894 409 
Q 2359 409 2629 706 
Q 2900 1003 2900 1516 
L 2900 3500 
L 3475 3500 
L 3475 0 
L 2900 0 
L 2900 538 
Q 2691 219 2414 64 
Q 2138 -91 1772 -91 
Q 1169 -91 856 284 
Q 544 659 544 1381 
z
M 1991 3584 
L 1991 3584 
z
" id="DejaVuSans-75" transform="scale(0.015625)"/>
      <path d="M 1172 4494 
L 1172 3500 
L 2356 3500 
L 2356 3053 
L 1172 3053 
L 1172 1153 
Q 1172 725 1289 603 
Q 1406 481 1766 481 
L 2356 481 
L 2356 0 
L 1766 0 
Q 1100 0 847 248 
Q 594 497 594 1153 
L 594 3053 
L 172 3053 
L 172 3500 
L 594 3500 
L 594 4494 
L 1172 4494 
z
" id="DejaVuSans-74" transform="scale(0.015625)"/>
      <path id="DejaVuSans-20" transform="scale(0.015625)"/>
      <path d="M 3425 4513 
L 3425 3897 
Q 3066 4069 2747 4153 
Q 2428 4238 2131 4238 
Q 1616 4238 1336 4038 
Q 1056 3838 1056 3469 
Q 1056 3159 1242 3001 
Q 1428 2844 1947 2747 
L 2328 2669 
Q 3034 2534 3370 2195 
Q 3706 1856 3706 1288 
Q 3706 609 3251 259 
Q 2797 -91 1919 -91 
Q 1588 -91 1214 -16 
Q 841 59 441 206 
L 441 856 
Q 825 641 1194 531 
Q 1563 422 1919 422 
Q 2459 422 2753 634 
Q 3047 847 3047 1241 
Q 3047 1584 2836 1778 
Q 2625 1972 2144 2069 
L 1759 2144 
Q 1053 2284 737 2584 
Q 422 2884 422 3419 
Q 422 4038 858 4394 
Q 1294 4750 2059 4750 
Q 2388 4750 2728 4690 
Q 3069 4631 3425 4513 
z
" id="DejaVuSans-53" transform="scale(0.015625)"/>
      <path d="M 3597 1894 
L 3597 1613 
L 953 1613 
Q 991 1019 1311 708 
Q 1631 397 2203 397 
Q 2534 397 2845 478 
Q 3156 559 3463 722 
L 3463 178 
Q 3153 47 2828 -22 
Q 2503 -91 2169 -91 
Q 1331 -91 842 396 
Q 353 884 353 1716 
Q 353 2575 817 3079 
Q 1281 3584 2069 3584 
Q 2775 3584 3186 3129 
Q 3597 2675 3597 1894 
z
M 3022 2063 
Q 3016 2534 2758 2815 
Q 2500 3097 2075 3097 
Q 1594 3097 1305 2825 
Q 1016 2553 972 2059 
L 3022 2063 
z
" id="DejaVuSans-65" transform="scale(0.015625)"/>
      <path d="M 947 1747 
Q 947 1113 1208 752 
Q 1469 391 1925 391 
Q 2381 391 2643 752 
Q 2906 1113 2906 1747 
Q 2906 2381 2643 2742 
Q 2381 3103 1925 3103 
Q 1469 3103 1208 2742 
Q 947 2381 947 1747 
z
M 2906 525 
Q 2725 213 2448 61 
Q 2172 -91 1784 -91 
Q 1150 -91 751 415 
Q 353 922 353 1747 
Q 353 2572 751 3078 
Q 1150 3584 1784 3584 
Q 2172 3584 2448 3432 
Q 2725 3281 2906 2969 
L 2906 3500 
L 3481 3500 
L 3481 -1331 
L 2906 -1331 
L 2906 525 
z
" id="DejaVuSans-71" transform="scale(0.015625)"/>
      <path d="M 3122 3366 
L 3122 2828 
Q 2878 2963 2633 3030 
Q 2388 3097 2138 3097 
Q 1578 3097 1268 2742 
Q 959 2388 959 1747 
Q 959 1106 1268 751 
Q 1578 397 2138 397 
Q 2388 397 2633 464 
Q 2878 531 3122 666 
L 3122 134 
Q 2881 22 2623 -34 
Q 2366 -91 2075 -91 
Q 1284 -91 818 406 
Q 353 903 353 1747 
Q 353 2603 823 3093 
Q 1294 3584 2113 3584 
Q 2378 3584 2631 3529 
Q 2884 3475 3122 3366 
z
" id="DejaVuSans-63" transform="scale(0.015625)"/>
      <path d="M 1984 4856 
Q 1566 4138 1362 3434 
Q 1159 2731 1159 2009 
Q 1159 1288 1364 580 
Q 1569 -128 1984 -844 
L 1484 -844 
Q 1016 -109 783 600 
Q 550 1309 550 2009 
Q 550 2706 781 3412 
Q 1013 4119 1484 4856 
L 1984 4856 
z
" id="DejaVuSans-28" transform="scale(0.015625)"/>
      <path d="M 2034 2216 
Q 1584 2216 1326 1975 
Q 1069 1734 1069 1313 
Q 1069 891 1326 650 
Q 1584 409 2034 409 
Q 2484 409 2743 651 
Q 3003 894 3003 1313 
Q 3003 1734 2745 1975 
Q 2488 2216 2034 2216 
z
M 1403 2484 
Q 997 2584 770 2862 
Q 544 3141 544 3541 
Q 544 4100 942 4425 
Q 1341 4750 2034 4750 
Q 2731 4750 3128 4425 
Q 3525 4100 3525 3541 
Q 3525 3141 3298 2862 
Q 3072 2584 2669 2484 
Q 3125 2378 3379 2068 
Q 3634 1759 3634 1313 
Q 3634 634 3220 271 
Q 2806 -91 2034 -91 
Q 1263 -91 848 271 
Q 434 634 434 1313 
Q 434 1759 690 2068 
Q 947 2378 1403 2484 
z
M 1172 3481 
Q 1172 3119 1398 2916 
Q 1625 2713 2034 2713 
Q 2441 2713 2670 2916 
Q 2900 3119 2900 3481 
Q 2900 3844 2670 4047 
Q 2441 4250 2034 4250 
Q 1625 4250 1398 4047 
Q 1172 3844 1172 3481 
z
" id="DejaVuSans-38" transform="scale(0.015625)"/>
      <path d="M 2906 2969 
L 2906 4863 
L 3481 4863 
L 3481 0 
L 2906 0 
L 2906 525 
Q 2725 213 2448 61 
Q 2172 -91 1784 -91 
Q 1150 -91 751 415 
Q 353 922 353 1747 
Q 353 2572 751 3078 
Q 1150 3584 1784 3584 
Q 2172 3584 2448 3432 
Q 2725 3281 2906 2969 
z
M 947 1747 
Q 947 1113 1208 752 
Q 1469 391 1925 391 
Q 2381 391 2643 752 
Q 2906 1113 2906 1747 
Q 2906 2381 2643 2742 
Q 2381 3103 1925 3103 
Q 1469 3103 1208 2742 
Q 947 2381 947 1747 
z
" id="DejaVuSans-64" transform="scale(0.015625)"/>
      <path d="M 2194 1759 
Q 1497 1759 1228 1600 
Q 959 1441 959 1056 
Q 959 750 1161 570 
Q 1363 391 1709 391 
Q 2188 391 2477 730 
Q 2766 1069 2766 1631 
L 2766 1759 
L 2194 1759 
z
M 3341 1997 
L 3341 0 
L 2766 0 
L 2766 531 
Q 2569 213 2275 61 
Q 1981 -91 1556 -91 
Q 1019 -91 701 211 
Q 384 513 384 1019 
Q 384 1609 779 1909 
Q 1175 2209 1959 2209 
L 2766 2209 
L 2766 2266 
Q 2766 2663 2505 2880 
Q 2244 3097 1772 3097 
Q 1472 3097 1187 3025 
Q 903 2953 641 2809 
L 641 3341 
Q 956 3463 1253 3523 
Q 1550 3584 1831 3584 
Q 2591 3584 2966 3190 
Q 3341 2797 3341 1997 
z
" id="DejaVuSans-61" transform="scale(0.015625)"/>
      <path d="M 2059 -325 
Q 1816 -950 1584 -1140 
Q 1353 -1331 966 -1331 
L 506 -1331 
L 506 -850 
L 844 -850 
Q 1081 -850 1212 -737 
Q 1344 -625 1503 -206 
L 1606 56 
L 191 3500 
L 800 3500 
L 1894 763 
L 2988 3500 
L 3597 3500 
L 2059 -325 
z
" id="DejaVuSans-79" transform="scale(0.015625)"/>
      <path d="M 2834 3397 
L 2834 2853 
Q 2591 2978 2328 3040 
Q 2066 3103 1784 3103 
Q 1356 3103 1142 2972 
Q 928 2841 928 2578 
Q 928 2378 1081 2264 
Q 1234 2150 1697 2047 
L 1894 2003 
Q 2506 1872 2764 1633 
Q 3022 1394 3022 966 
Q 3022 478 2636 193 
Q 2250 -91 1575 -91 
Q 1294 -91 989 -36 
Q 684 19 347 128 
L 347 722 
Q 666 556 975 473 
Q 1284 391 1588 391 
Q 1994 391 2212 530 
Q 2431 669 2431 922 
Q 2431 1156 2273 1281 
Q 2116 1406 1581 1522 
L 1381 1569 
Q 847 1681 609 1914 
Q 372 2147 372 2553 
Q 372 3047 722 3315 
Q 1072 3584 1716 3584 
Q 2034 3584 2315 3537 
Q 2597 3491 2834 3397 
z
" id="DejaVuSans-73" transform="scale(0.015625)"/>
      <path d="M 513 4856 
L 1013 4856 
Q 1481 4119 1714 3412 
Q 1947 2706 1947 2009 
Q 1947 1309 1714 600 
Q 1481 -109 1013 -844 
L 513 -844 
Q 928 -128 1133 580 
Q 1338 1288 1338 2009 
Q 1338 2731 1133 3434 
Q 928 4138 513 4856 
z
" id="DejaVuSans-29" transform="scale(0.015625)"/>
     </defs>
     <use xlink:href="#DejaVuSans-49"/>
     <use x="29.492188" xlink:href="#DejaVuSans-6e"/>
     <use x="92.871094" xlink:href="#DejaVuSans-70"/>
     <use x="156.347656" xlink:href="#DejaVuSans-75"/>
     <use x="219.726562" xlink:href="#DejaVuSans-74"/>
     <use x="258.935547" xlink:href="#DejaVuSans-20"/>
     <use x="290.722656" xlink:href="#DejaVuSans-53"/>
     <use x="354.199219" xlink:href="#DejaVuSans-65"/>
     <use x="415.722656" xlink:href="#DejaVuSans-71"/>
     <use x="479.199219" xlink:href="#DejaVuSans-75"/>
     <use x="542.578125" xlink:href="#DejaVuSans-65"/>
     <use x="604.101562" xlink:href="#DejaVuSans-6e"/>
     <use x="667.480469" xlink:href="#DejaVuSans-63"/>
     <use x="722.460938" xlink:href="#DejaVuSans-65"/>
     <use x="783.984375" xlink:href="#DejaVuSans-20"/>
     <use x="815.771484" xlink:href="#DejaVuSans-28"/>
     <use x="854.785156" xlink:href="#DejaVuSans-38"/>
     <use x="918.408203" xlink:href="#DejaVuSans-20"/>
     <use x="950.195312" xlink:href="#DejaVuSans-64"/>
     <use x="1013.671875" xlink:href="#DejaVuSans-61"/>
     <use x="1074.951172" xlink:href="#DejaVuSans-79"/>
     <use x="1134.130859" xlink:href="#DejaVuSans-73"/>
     <use x="1186.230469" xlink:href="#DejaVuSans-29"/>
    </g>
   </g>
   <g id="text_2">
    <!-- Output Sequence (4 days) -->
    <g style="fill:#2ca02c;" transform="translate(505.589954 25.43625)scale(0.24 -0.24)">
     <defs>
      <path d="M 2522 4238 
Q 1834 4238 1429 3725 
Q 1025 3213 1025 2328 
Q 1025 1447 1429 934 
Q 1834 422 2522 422 
Q 3209 422 3611 934 
Q 4013 1447 4013 2328 
Q 4013 3213 3611 3725 
Q 3209 4238 2522 4238 
z
M 2522 4750 
Q 3503 4750 4090 4092 
Q 4678 3434 4678 2328 
Q 4678 1225 4090 567 
Q 3503 -91 2522 -91 
Q 1538 -91 948 565 
Q 359 1222 359 2328 
Q 359 3434 948 4092 
Q 1538 4750 2522 4750 
z
" id="DejaVuSans-4f" transform="scale(0.015625)"/>
      <path d="M 2419 4116 
L 825 1625 
L 2419 1625 
L 2419 4116 
z
M 2253 4666 
L 3047 4666 
L 3047 1625 
L 3713 1625 
L 3713 1100 
L 3047 1100 
L 3047 0 
L 2419 0 
L 2419 1100 
L 313 1100 
L 313 1709 
L 2253 4666 
z
" id="DejaVuSans-34" transform="scale(0.015625)"/>
     </defs>
     <use xlink:href="#DejaVuSans-4f"/>
     <use x="78.710938" xlink:href="#DejaVuSans-75"/>
     <use x="142.089844" xlink:href="#DejaVuSans-74"/>
     <use x="181.298828" xlink:href="#DejaVuSans-70"/>
     <use x="244.775391" xlink:href="#DejaVuSans-75"/>
     <use x="308.154297" xlink:href="#DejaVuSans-74"/>
     <use x="347.363281" xlink:href="#DejaVuSans-20"/>
     <use x="379.150391" xlink:href="#DejaVuSans-53"/>
     <use x="442.626953" xlink:href="#DejaVuSans-65"/>
     <use x="504.150391" xlink:href="#DejaVuSans-71"/>
     <use x="567.626953" xlink:href="#DejaVuSans-75"/>
     <use x="631.005859" xlink:href="#DejaVuSans-65"/>
     <use x="692.529297" xlink:href="#DejaVuSans-6e"/>
     <use x="755.908203" xlink:href="#DejaVuSans-63"/>
     <use x="810.888672" xlink:href="#DejaVuSans-65"/>
     <use x="872.412109" xlink:href="#DejaVuSans-20"/>
     <use x="904.199219" xlink:href="#DejaVuSans-28"/>
     <use x="943.212891" xlink:href="#DejaVuSans-34"/>
     <use x="1006.835938" xlink:href="#DejaVuSans-20"/>
     <use x="1038.623047" xlink:href="#DejaVuSans-64"/>
     <use x="1102.099609" xlink:href="#DejaVuSans-61"/>
     <use x="1163.378906" xlink:href="#DejaVuSans-79"/>
     <use x="1222.558594" xlink:href="#DejaVuSans-73"/>
     <use x="1274.658203" xlink:href="#DejaVuSans-29"/>
    </g>
   </g>
  </g>
 </g>
 <defs>
  <clipPath id="p7a34b90189">
   <rect height="224.210575" width="816.948409" x="7.2" y="49.165025"/>
  </clipPath>
 </defs>
</svg>
